<?xml version="1.0" encoding="UTF-8"?>
<svg width="10px" height="10px" viewBox="0 0 10 10" version="1.1" xmlns="http://www.w3.org/2000/svg" xmlns:xlink="http://www.w3.org/1999/xlink">
    <title>形状结合</title>
    <g id="页面-4" stroke="none" stroke-width="1" fill="none" fill-rule="evenodd">
        <g id="典型页结构4：全屏看视频-支架态-选集(折叠屏)" transform="translate(-112.000000, -476.000000)" fill="#ED6F21">
            <g id="2" transform="translate(104.000000, 440.000000)">
                <g id="播放提示" transform="translate(8.000000, 36.000000)">
                    <path d="M5,0 C5.55228475,-1.01453063e-16 6,0.44771525 6,1 L6,9 C6,9.55228475 5.55228475,10 5,10 C4.44771525,10 4,9.55228475 4,9 L4,1 C4,0.44771525 4.44771525,1.01453063e-16 5,0 Z M9,6 C9.55228475,6 10,6.44771525 10,7 L10,9 C10,9.55228475 9.55228475,10 9,10 C8.44771525,10 8,9.55228475 8,9 L8,7 C8,6.44771525 8.44771525,6 9,6 Z M1,3 C1.55228475,3 2,3.44771525 2,4 L2,9 C2,9.55228475 1.55228475,10 1,10 C0.44771525,10 6.76353751e-17,9.55228475 0,9 L0,4 C-6.76353751e-17,3.44771525 0.44771525,3 1,3 Z" id="形状结合"></path>
                </g>
            </g>
        </g>
    </g>
</svg>