<?xml version="1.0" encoding="UTF-8"?>
<svg width="16px" height="16px" viewBox="0 0 16 16" version="1.1" xmlns="http://www.w3.org/2000/svg" xmlns:xlink="http://www.w3.org/1999/xlink">
    <title>ic_20_Max Pressure备份</title>
    <g id="1016备份" stroke="none" stroke-width="1" fill="none" fill-rule="evenodd">
        <g id="图标" transform="translate(-69.000000, -427.000000)">
            <g id="编组-16" transform="translate(69.000000, 427.000000)">
                <rect id="矩形" x="0" y="0" width="16" height="16"></rect>
                <g id="编组-14"></g>
                <g id="ic_20_Max-Pressure备份" fill="#01B1F6">
                    <path d="M9.2890967,7.39146439 L10.6741893,9.74612188 C11.0929825,10.4580703 10.8553333,11.3747175 10.1433848,11.7935108 C9.91354819,11.9287088 9.65174482,12 9.38509264,12 L6.61490736,12 C5.78891805,12 5.11932141,11.3304034 5.11932141,10.5044141 C5.11932141,10.2377619 5.19061264,9.97595851 5.32581066,9.74612188 L6.7109033,7.39146439 C7.12969651,6.67951594 8.04634373,6.44186666 8.75829217,6.86065986 C8.97747578,6.98959139 9.16016517,7.17228078 9.2890967,7.39146439 Z" id="三角形" transform="translate(8.000000, 8.600000) scale(1, -1) translate(-8.000000, -8.600000) "></path>
                </g>
            </g>
        </g>
    </g>
</svg>