<?xml version="1.0" encoding="UTF-8"?>
<svg width="50px" height="46px" viewBox="0 0 50 46" version="1.1" xmlns="http://www.w3.org/2000/svg" xmlns:xlink="http://www.w3.org/1999/xlink">
    <title>ic_空状态</title>
    <g id="场景一：IM对话" stroke="none" stroke-width="1" fill="none" fill-rule="evenodd">
        <g id="切图" transform="translate(-43.000000, -26.000000)" fill="#D8D8D8">
            <path d="M67.84,26 C81.5587532,26 92.68,35.5943604 92.68,47.4296036 C92.68,53.8260455 89.4315513,59.5679391 84.2802477,63.4944332 C82.8000931,64.622656 84.8928171,69.5042747 85.9859064,72 C78.4656162,72 75.5075428,67.9056233 73.38694,68.3229028 C71.6033984,68.6738575 69.7467893,68.8592073 67.84,68.8592073 C54.1212468,68.8592073 43,59.2648469 43,47.4296036 C43,35.5943604 54.1212468,26 67.84,26 Z M55.84,44.3194669 C54.1831458,44.3194669 52.84,45.6626127 52.84,47.3194669 C52.84,48.9763212 54.1831458,50.3194669 55.84,50.3194669 C57.4968542,50.3194669 58.84,48.9763212 58.84,47.3194669 C58.84,45.6626127 57.4968542,44.3194669 55.84,44.3194669 Z M67.84,44.3194669 C66.1831458,44.3194669 64.84,45.6626127 64.84,47.3194669 C64.84,48.9763212 66.1831458,50.3194669 67.84,50.3194669 C69.4968542,50.3194669 70.84,48.9763212 70.84,47.3194669 C70.84,45.6626127 69.4968542,44.3194669 67.84,44.3194669 Z M79.84,44.3194669 C78.1831458,44.3194669 76.84,45.6626127 76.84,47.3194669 C76.84,48.9763212 78.1831458,50.3194669 79.84,50.3194669 C81.4968542,50.3194669 82.84,48.9763212 82.84,47.3194669 C82.84,45.6626127 81.4968542,44.3194669 79.84,44.3194669 Z" id="ic_空状态"></path>
        </g>
    </g>
</svg>