<?xml version="1.0" encoding="UTF-8"?>
<svg width="24px" height="24px" viewBox="0 0 24 24" version="1.1" xmlns="http://www.w3.org/2000/svg" xmlns:xlink="http://www.w3.org/1999/xlink">
    <title>Public/ic_public_video_filled</title>
    <defs>
        <path d="M18,16.25 C18,18.1829966 16.4329966,19.75 14.5,19.75 L3.5,19.75 C1.56700338,19.75 2.36723813e-16,18.1829966 0,16.25 L0,7.75 C-2.36723813e-16,5.81700338 1.56700338,4.25 3.5,4.25 L14.5,4.25 C16.4329966,4.25 18,5.81700338 18,7.75 L18,16.25 Z M23.8189379,7.30399329 C23.9377676,7.52337101 24,7.7689244 24,8.01841801 L24,15.981582 C24,16.8100091 23.3284271,17.481582 22.5,17.481582 C22.2505064,17.481582 22.004953,17.4193495 21.7855753,17.3005199 L19,15.7911304 L19,8.20813041 L21.7855753,6.69948006 C22.5140046,6.30491418 23.4243721,6.57556397 23.8189379,7.30399329 Z" id="path-1"></path>
    </defs>
    <g id="Public/ic_public_video_filled" stroke="none" stroke-width="1" fill="none" fill-rule="evenodd">
        <mask id="mask-2" fill="white">
            <use xlink:href="#path-1"></use>
        </mask>
        <g id="形状结合"></g>
        <g id="编组" mask="url(#mask-2)" fill="#000000" fill-opacity="0.9">
            <g id="color/#000000">
                <rect x="0" y="0" width="24" height="24"></rect>
            </g>
        </g>
    </g>
</svg>