<?xml version="1.0" encoding="UTF-8"?>
<svg width="24px" height="24px" viewBox="0 0 24 24" version="1.1" xmlns="http://www.w3.org/2000/svg" xmlns:xlink="http://www.w3.org/1999/xlink">
    <title>通讯录</title>
    <g id="通讯录" stroke="none" stroke-width="1" fill="none" fill-rule="evenodd">
        <g id="编组" transform="translate(2.000000, 2.000000)" fill="#0A59F7" fill-rule="nonzero">
            <path d="M8.79292615,10.5 C14.2929262,10.5 16.4381834,14.4535785 17.0282203,15.7777778 C17.2407792,16.2548162 17.4129089,16.8850399 17.5446095,17.6684491 C17.7277092,18.7577255 16.9931271,19.7892038 15.9038541,19.9723239 C15.7942919,19.9907426 15.6833855,20 15.5722859,20 L2.00001849,20 C0.89543878,20 0,19.1045797 0,18 C0,17.8896708 0.0091293,17.7795307 0.02729444,17.6707071 C0.15823817,16.8862509 0.33501737,16.2552744 0.55763203,15.7777778 C1.17498964,14.4535785 3.29292615,10.5 8.79292615,10.5 Z" id="path-1-path"></path>
            <path d="M13.783437,10.3144625 C17.4564098,10.7984599 20.2929262,13.942978 20.2929262,17.75 C20.2929262,18.5595992 19.6515325,19.2193929 18.8491608,19.2489654 L18.7929262,19.250083 L18.7259871,19.250083 C18.7614639,19.1887813 18.7842982,19.1192484 18.7909242,19.0450502 L18.7929262,19 L18.7929262,18.5 C18.7929262,15.1281704 16.7326663,12.1894203 13.6833175,10.6478036 L13.6821382,10.6472076 L13.6809658,10.6465918 C13.594057,10.6027174 13.5591708,10.4966966 13.6030452,10.4097878 C13.628368,10.3596272 13.6753956,10.3255813 13.7286628,10.3158227 L13.783437,10.3144625 L13.783437,10.3144625 Z" id="path-1-path" fill-opacity="0.6"></path>
            <path d="M11.5429262,0 C14.0282076,0 16.0429262,2.01471863 16.0429262,4.5 C16.0429262,5.62311012 15.6314848,6.65012296 14.9511075,7.43853308 C14.4784751,7.98621183 13.8760662,8.4187515 13.1916504,8.6883823 L13.1816399,8.6921429 L13.1816399,8.6921429 L13.1669562,8.6974221 C13.1032313,8.7197886 13.0334405,8.686261 13.011074,8.6225361 C13.0016042,8.5955555 13.0020197,8.5665822 13.0114519,8.5404743 L13.0322542,8.5040687 L13.0322542,8.5040687 C13.8197254,7.55263148 14.2929262,6.33157673 14.2929262,5 C14.2929262,2.96455014 13.1872349,1.18734834 11.5437174,0.23625986 L11.5179824,0.2215584 L11.5179824,0.2215584 L11.4898199,0.20589364 C11.4367465,0.17656384 11.4174985,0.10976282 11.4468283,0.05668939 C11.4661573,0.02171266 11.5029639,0 11.5429262,0 Z" id="path-1-path" fill-opacity="0.6"></path>
            <path d="M8.79292615,0.5 C6.30764478,0.5 4.29292615,2.51471863 4.29292615,5 C4.29292615,7.48528137 6.30764478,9.5 8.79292615,9.5 C11.2782076,9.5 13.2929261,7.48528137 13.2929261,5 C13.2929261,2.51471863 11.2782076,0.5 8.79292615,0.5 Z" id="path-1-path"></path>
        </g>
    </g>
</svg>