<?xml version="1.0" encoding="UTF-8"?>
<svg width="24px" height="24px" viewBox="0 0 24 24" version="1.1" xmlns="http://www.w3.org/2000/svg" xmlns:xlink="http://www.w3.org/1999/xlink">
    <title>Bottom bar/icon_社交圈_G</title>
    <g id="Bottom-bar/icon_社交圈_G" stroke="none" stroke-width="1" fill="none" fill-rule="evenodd">
        <path d="M12,2.5 C13.1045695,2.5 14,3.3954305 14,4.5 C14,5.24689147 13.5905878,5.8981596 12.9839422,6.24162558 L16.3974708,12.2777778 L18.781131,10.0230942 C18.6025806,9.72376236 18.5,9.37386068 18.5,9 C18.5,7.8954305 19.3954305,7 20.5,7 C21.6045695,7 22.5,7.8954305 22.5,9 C22.5,10.1045695 21.6045695,11 20.5,11 C20.4184985,11 20.3381355,10.995125 20.2591869,10.9856506 L18.2959647,18.3847525 C18.1214804,19.0422402 17.5263951,19.5 16.846149,19.5 L16.846149,19.5 L7.15598656,19.5 C6.47474302,19.5 5.87904811,19.0409231 5.70548538,18.3821601 L5.70548538,18.3821601 L3.75678324,10.9836689 C3.67270997,10.9944445 3.58700376,11 3.5,11 C2.3954305,11 1.5,10.1045695 1.5,9 C1.5,7.8954305 2.3954305,7 3.5,7 C4.6045695,7 5.5,7.8954305 5.5,9 C5.5,9.36556188 5.4019229,9.70821663 5.23064652,10.0030864 L7.64781411,12.2777778 L11.0221309,6.24504998 C10.4121462,5.90250032 10,5.24938111 10,4.5 C10,3.3954305 10.8954305,2.5 12,2.5 Z" id="形状结合" fill-opacity="0.2" fill="#000000"></path>
        <circle id="椭圆形备份-5" fill-opacity="0.25" fill="#000000" cx="12" cy="14.25" r="1.75"></circle>
        <path d="M17.2757886,20.5 C17.6757595,20.5 18,20.8357864 18,21.25 C18,21.6296958 17.7275479,21.943491 17.3740598,21.9931534 L17.2757886,22 L6.7242114,22 C6.32424049,22 6,21.6642136 6,21.25 C6,20.8703042 6.27245208,20.556509 6.6259402,20.5068466 L6.7242114,20.5 L17.2757886,20.5 Z" id="路径-3" fill-opacity="0.2" fill="#000000" fill-rule="nonzero"></path>
    </g>
</svg>