<?xml version="1.0" encoding="UTF-8"?>
<svg width="24px" height="24px" viewBox="0 0 24 24" version="1.1" xmlns="http://www.w3.org/2000/svg" xmlns:xlink="http://www.w3.org/1999/xlink">
    <title>Bottom bar/icon_消息_B</title>
    <g id="Bottom-bar/icon_消息_B" stroke="none" stroke-width="1" fill="none" fill-rule="evenodd">
        <g id="ic_public_community_messages_filled" transform="translate(1.000000, 4.000000)" fill="#0A59F7" fill-rule="nonzero">
            <path d="M18.0653051,3.4524421 C20.3512708,4.20787574 22,6.35302062 22,8.88135459 C22,11.9681904 19.5424207,14.4838485 16.4680344,14.5966021 L16.2525646,14.6005469 L15.8533038,14.59887 C15.8893963,14.7605267 15.9413453,14.9773799 15.9687212,15.0888179 L15.9818747,15.141746 L16.025413,15.3089418 L16.0810086,15.5118345 C16.1749412,15.8465257 16.2927702,16.2294762 16.4344233,16.6600751 L16.5451289,16.9919489 L16.556099,17.0267961 L16.5779174,17.1223073 C16.6869825,17.7826685 15.8972193,18.2592352 15.3494346,17.8453032 L15.2729489,17.780036 L11.9562667,14.6004324 L11.1252131,14.6005469 C10.6396733,14.6005469 10.1681957,14.5406351 9.71783892,14.4278356 L11.0315333,13.1611621 L11.4756715,13.1614158 C15.3980619,13.1614158 18.5777778,9.99732511 18.5777778,6.09422139 C18.5777778,5.23553859 18.4238796,4.41262401 18.1420328,3.65129989 L18.0653051,3.4524421 Z M11.4756837,0 C14.8580501,0 17.6,2.72847586 17.6,6.09422139 C17.6,9.45996693 14.8580501,12.1884428 11.4756837,12.1884428 L10.6352889,12.1884324 L7.12275991,15.5764229 C6.5424689,16.1360222 5.61654946,15.6107537 5.7417273,14.8713738 L5.76413049,14.7737902 L5.77574583,14.736658 C5.97898782,14.1314321 6.14284481,13.6052846 6.26716731,13.159487 L6.32603333,12.9432898 L6.37213272,12.7651303 C6.38369793,12.719211 6.41152137,12.6043861 6.44180255,12.4758299 L6.48734257,12.2795936 C6.49466476,12.24747 6.50170931,12.2162124 6.50826057,12.1866829 L6.12431632,12.1884428 C2.74194982,12.1884428 0,9.45996693 0,6.09422139 C0,2.72847586 2.74194982,0 6.12431632,0 L11.4756837,0 Z" id="path-1"></path>
        </g>
    </g>
</svg>