<?xml version="1.0" encoding="UTF-8"?>
<svg width="24px" height="24px" viewBox="0 0 24 24" version="1.1" xmlns="http://www.w3.org/2000/svg" xmlns:xlink="http://www.w3.org/1999/xlink">
    <title>ic_study_on_blue</title>
    <g id="ic_study_on_blue" stroke="none" stroke-width="1" fill="none" fill-rule="evenodd">
        <path d="M18.2931923,1 C19.2630088,1 20.0935869,1.61758029 20.4384611,2.49382091 C20.5193442,2.48509648 20.6017274,2.48053129 20.6842105,2.48053129 C21.9075781,2.48053129 22.9093844,3.46324769 22.9941855,4.70823723 L23,4.87956653 L23,17.5410806 C23,19.2500419 21.842063,20.7124546 20.2461037,21.061605 L20.0443795,21.0993878 L13.0969732,22.1854576 C12.9421409,22.6590953 12.5095003,23 12,23 C11.4904997,23 11.0578592,22.6590953 10.9030267,22.1854576 L3.95562046,21.0993878 C2.25644205,20.8338943 1,19.3212485 1,17.5410806 L1,4.87956653 C1,3.55461595 2.03681426,2.48053129 3.31578948,2.48053129 C3.36876646,2.48053129 3.4217022,2.48241452 3.4745037,2.48617223 C3.82124916,1.61386693 4.64974447,1 5.61664097,1 C5.76214713,1 5.90732944,1.01420661 6.05026204,1.04243136 L10.1028936,1.84270041 C11.0722189,2.03411209 11.8035998,2.83492536 11.9557981,3.81788682 C12.1062335,2.83492536 12.8376143,2.03411209 13.8069396,1.84270041 L17.8595712,1.04243136 C18.0025039,1.01420661 18.1476862,1 18.2931923,1 Z" id="形状结合" fill="#0A59F7" fill-rule="nonzero"></path>
        <path d="M6.05026204,1.04243136 L10.1028936,1.84270041 C11.1949979,2.05835713 11.985062,3.04757157 11.985062,4.19930429 L11.985062,18.757371 C11.985062,19.4198462 11.4666549,19.9568885 10.8271673,19.9568885 C10.7544142,19.9568885 10.6818231,19.9497853 10.6103568,19.9356729 L5.1830199,18.8639422 C4.09091562,18.6482855 3.3008515,17.659071 3.3008515,16.5073383 L3.3008515,3.39903524 C3.3008515,2.07408466 4.33766576,1 5.61664097,1 C5.76214713,1 5.90732944,1.01420661 6.05026204,1.04243136 Z" id="路径" fill-opacity="0.4" fill="#FFFFFF" fill-rule="nonzero"></path>
        <path d="M14.6741818,1.04243136 L18.7268133,1.84270041 C19.8189177,2.05835713 20.6089818,3.04757157 20.6089818,4.19930429 L20.6089818,18.757371 C20.6089818,19.4198462 20.0905746,19.9568885 19.451087,19.9568885 C19.3783339,19.9568885 19.3057428,19.9497853 19.2342765,19.9356729 L13.8069396,18.8639422 C12.7148354,18.6482855 11.9247712,17.659071 11.9247712,16.5073383 L11.9247712,3.39903524 C11.9247712,2.07408466 12.9615855,1 14.2405607,1 C14.3860668,1 14.5312491,1.01420661 14.6741818,1.04243136 Z" id="路径" fill-opacity="0.8" fill="#FFFFFF" fill-rule="nonzero" transform="translate(16.266876, 10.478444) scale(-1, 1) translate(-16.266876, -10.478444) "></path>
    </g>
</svg>