<?xml version="1.0" encoding="UTF-8"?>
<svg width="24px" height="24px" viewBox="0 0 24 24" version="1.1" xmlns="http://www.w3.org/2000/svg" xmlns:xlink="http://www.w3.org/1999/xlink">
    <title>ic_study_off_blue</title>
    <g id="ic_study_off_blue" stroke="none" stroke-width="1" fill="none" fill-rule="evenodd">
        <g id="编组" transform="translate(1.000000, 1.000000)" fill="#000000" fill-rule="nonzero">
            <path d="M17.2931923,0 C18.2630088,0 19.0935869,0.617580293 19.4384611,1.49382091 C19.5193442,1.48509648 19.6017274,1.48053129 19.6842105,1.48053129 C20.9075781,1.48053129 21.9093844,2.46324769 21.9941855,3.70823723 L22,3.87956653 L22,16.5410806 C22,18.2500419 20.842063,19.7124546 19.2461037,20.061605 L19.0443795,20.0993878 L12.0969732,21.1854576 C11.9421409,21.6590953 11.5095003,22 11,22 C10.4904997,22 10.0578592,21.6590953 9.9030267,21.1854576 L2.95562046,20.0993878 C1.25644205,19.8338943 0,18.3212485 0,16.5410806 L0,3.87956653 C0,2.55461595 1.03681426,1.48053129 2.31578948,1.48053129 C2.36876646,1.48053129 2.4217022,1.48241452 2.4745037,1.48617223 C2.82124916,0.613866929 3.64974447,0 4.61664097,0 C4.76214713,0 4.90732944,0.0142066053 5.05026204,0.0424313619 L9.10289362,0.842700406 C10.0722189,1.03411209 10.8035998,1.83492536 10.9557981,2.81788682 C11.1062335,1.83492536 11.8376143,1.03411209 12.8069396,0.842700406 L16.8595712,0.0424313619 C17.0025039,0.0142066053 17.1476862,0 17.2931923,0 Z" id="形状结合" fill-opacity="0.2"></path>
            <path d="M5.05026204,0.0424313619 L9.10289362,0.842700406 C10.1949979,1.05835713 10.985062,2.04757157 10.985062,3.19930429 L10.985062,17.757371 C10.985062,18.4198462 10.4666549,18.9568885 9.82716728,18.9568885 C9.75441421,18.9568885 9.68182305,18.9497853 9.61035676,18.9356729 L4.1830199,17.8639422 C3.09091562,17.6482855 2.3008515,16.659071 2.3008515,15.5073383 L2.3008515,2.39903524 C2.3008515,1.07408466 3.33766576,0 4.61664097,0 C4.76214713,0 4.90732944,0.0142066053 5.05026204,0.0424313619 Z" id="路径" fill-opacity="0.05"></path>
            <path d="M13.6741818,0.0424313619 L17.7268133,0.842700406 C18.8189177,1.05835713 19.6089818,2.04757157 19.6089818,3.19930429 L19.6089818,17.757371 C19.6089818,18.4198462 19.0905746,18.9568885 18.451087,18.9568885 C18.3783339,18.9568885 18.3057428,18.9497853 18.2342765,18.9356729 L12.8069396,17.8639422 C11.7148354,17.6482855 10.9247712,16.659071 10.9247712,15.5073383 L10.9247712,2.39903524 C10.9247712,1.07408466 11.9615855,0 13.2405607,0 C13.3860668,0 13.5312491,0.0142066053 13.6741818,0.0424313619 Z" id="路径" fill-opacity="0.25" transform="translate(15.266876, 9.478444) scale(-1, 1) translate(-15.266876, -9.478444) "></path>
        </g>
    </g>
</svg>