<?xml version="1.0" encoding="UTF-8"?>
<svg width="16px" height="16px" viewBox="0 0 16 16" version="1.1" xmlns="http://www.w3.org/2000/svg" xmlns:xlink="http://www.w3.org/1999/xlink">
    <title> ic_s/ic S_search 2</title>
    <defs>
        <path d="M11.636908,11.0133746 L14.1406731,13.5168996 C14.1894886,13.5657152 14.1894886,13.6448608 14.1406731,13.6936763 L13.610343,14.2240064 C13.5615275,14.272822 13.4823819,14.272822 13.4335663,14.2240064 L10.9226595,11.7142106 C11.1789865,11.499945 11.4178817,11.2655206 11.636908,11.0133746 Z M6.91666667,1.33333333 C10.0002565,1.33333333 12.5,3.83307681 12.5,6.91666667 C12.5,8.4145102 11.9101859,9.77459528 10.9501423,10.7773374 L11.1647045,10.5400601 C11.0886922,10.629091 11.0099301,10.7157033 10.9285497,10.7997656 C10.8572312,10.8734134 10.784495,10.9445544 10.7098668,11.0136815 C10.7025036,11.0205016 10.6952162,11.0272158 10.6879109,11.0339108 C9.69464643,11.9442971 8.37055223,12.5 6.91666667,12.5 C3.83307681,12.5 1.33333333,10.0002565 1.33333333,6.91666667 C1.33333333,3.83307681 3.83307681,1.33333333 6.91666667,1.33333333 Z M6.91666667,2.33333333 C4.38536156,2.33333333 2.33333333,4.38536156 2.33333333,6.91666667 C2.33333333,9.44797177 4.38536156,11.5 6.91666667,11.5 C9.44797177,11.5 11.5,9.44797177 11.5,6.91666667 C11.5,4.38536156 9.44797177,2.33333333 6.91666667,2.33333333 Z" id="path-1"></path>
    </defs>
    <g id="1016备份" stroke="none" stroke-width="1" fill="none" fill-rule="evenodd">
        <g id="图标" transform="translate(-28.000000, -50.000000)">
            <g id="编组" transform="translate(28.000000, 50.000000)">
                <rect id="矩形" x="0" y="0" width="16" height="16"></rect>
                <g id="-ic_s/ic-S_search">
                    <mask id="mask-2" fill="white">
                        <use xlink:href="#path-1"></use>
                    </mask>
                    <g id="形状结合" fill-rule="nonzero"></g>
                    <g id="编组" mask="url(#mask-2)" fill="#000000" fill-opacity="0.6">
                        <g id="Symbol/color-light/colorPrimary">
                            <rect id="color/#000000" x="0" y="0" width="16" height="16"></rect>
                        </g>
                    </g>
                </g>
            </g>
        </g>
    </g>
</svg>