<?xml version="1.0" encoding="UTF-8"?>
<svg width="10px" height="10px" viewBox="0 0 10 10" version="1.1" xmlns="http://www.w3.org/2000/svg" xmlns:xlink="http://www.w3.org/1999/xlink">
    <title>Public/ic_public_add</title>
    <defs>
        <path d="M5.375,9.625 C5.375,9.83210678 5.20710678,10 5,10 C4.79289322,10 4.625,9.83210678 4.625,9.625 L4.625,5.625 L0.5,5.625 C0.223857625,5.625 0,5.40114237 0,5.125 C0,4.84885763 0.223857625,4.625 0.5,4.625 L4.625,4.625 L4.625,0.375 C4.625,0.167893219 4.79289322,3.80448985e-17 5,0 C5.20710678,-3.80448985e-17 5.375,0.167893219 5.375,0.375 L5.375,9.625 Z M9.5,4.625 C9.77614237,4.625 10,4.84885763 10,5.125 C10,5.40114237 9.77614237,5.625 9.5,5.625 L5.875,5.625 L5.875,4.625 L9.5,4.625 Z" id="path-1"></path>
    </defs>
    <g id="1016" stroke="none" stroke-width="1" fill="none" fill-rule="evenodd">
        <g id="图标" transform="translate(-33.000000, -111.000000)">
            <g id="编组-3" transform="translate(32.000000, 110.000000)">
                <g id="Public/ic_public_add" transform="translate(1.000000, 1.000000)">
                    <mask id="mask-2" fill="white">
                        <use xlink:href="#path-1"></use>
                    </mask>
                    <use id="形状结合" fill="#0A59F7" xlink:href="#path-1"></use>
                    <g id="Symbol/color-light/colorPrimary" mask="url(#mask-2)" fill="#0A59F7" fill-opacity="0.4">
                        <g transform="translate(-1.000000, -1.000000)" id="color/#000000">
                            <rect x="0" y="0" width="12" height="12"></rect>
                        </g>
                    </g>
                </g>
            </g>
        </g>
    </g>
</svg>