<?xml version="1.0" encoding="UTF-8"?>
<svg width="22px" height="22px" viewBox="0 0 22 22" version="1.1" xmlns="http://www.w3.org/2000/svg" xmlns:xlink="http://www.w3.org/1999/xlink">
    <title>财富</title>
    <g id="典型页面-1：首页" stroke="none" stroke-width="1" fill="none" fill-rule="evenodd">
        <g id="财富" fill="#0A59F7" fill-rule="nonzero">
            <g id="编组">
                <path d="M10.9998956,0 C17.0652783,0 21.9997613,4.93454264 21.9997613,10.9999552 C21.9997613,17.0652783 17.0652485,21.9997911 10.9998956,21.9997911 C4.93451279,21.9997911 0,17.0652783 0,10.9999254 C0,4.93451279 4.93451279,0 10.9998956,0 Z M11.8005368,4.52646382 L10.170937,4.52646382 L10.170937,6.22367889 L9.97204717,6.26056577 C8.54361938,6.55920023 7.7773915,7.47677479 7.67681056,9.01759824 C7.59615564,10.5673488 8.69050265,11.541892 10.9548088,11.9386618 C11.9879559,12.0976442 12.5045593,12.4357803 12.5045593,12.9523837 C12.5045593,13.6677449 12.0075601,14.0246498 11.0143675,14.0246498 C10.1400536,14.0646043 9.56392136,13.4884421 9.28473701,12.295792 C9.18067743,11.8751401 8.80070861,11.5632791 8.34790073,11.5632791 C7.8149272,11.5632791 7.38286678,11.9953395 7.38286678,12.5283131 C7.38286678,12.654827 7.40721178,12.7756548 7.45147265,12.8863674 L7.45147265,12.8863674 L7.43726272,12.83255 C7.90173731,14.525707 8.8167218,15.4871807 10.1701314,15.7381271 L10.1701314,15.7381271 L10.1701314,17.4435181 L11.7997013,17.4435181 L11.7997013,15.7430207 L12.0142139,15.7073379 C13.6252925,15.406925 14.4654309,14.4890609 14.5326595,12.9523538 C14.5326595,11.4025735 13.4799081,10.4280302 11.3727643,10.0312605 C10.1408593,9.79242874 9.564727,9.43483763 9.64454644,8.9580992 C9.68372511,8.40166067 10.1220905,8.10419524 10.9556144,8.06352461 C11.6504625,8.06352461 12.1200078,8.47692202 12.3635535,9.30216087 C12.4593362,9.75741985 12.8632555,10.0992037 13.3470027,10.0992037 C13.9020426,10.0992037 14.3519914,9.64925495 14.3519914,9.09421502 C14.3519914,8.96334569 14.326977,8.83831879 14.2814686,8.72365476 L14.2814686,8.72365476 L14.2946633,8.77885604 C13.9687612,7.38388067 13.1319849,6.55444472 11.8005368,6.27168992 L11.8005368,6.27168992 L11.8005368,4.52646382 Z" id="形状结合"></path>
            </g>
        </g>
    </g>
</svg>