<?xml version="1.0" encoding="UTF-8"?>
<svg width="24px" height="24px" viewBox="0 0 24 24" version="1.1" xmlns="http://www.w3.org/2000/svg" xmlns:xlink="http://www.w3.org/1999/xlink">
    <title>图标</title>
    <defs>
        <path d="M11,0 C17.0751322,0 22,4.92486775 22,11 C22,17.0751322 17.0751322,22 11,22 C4.92486775,22 0,17.0751322 0,11 C0,4.92486775 4.92486775,0 11,0 Z M11.4425657,4.61281539 C10.9473121,4.36839309 10.3476862,4.57173209 10.1032639,5.06698575 L10.1032639,5.06698575 L8.76519427,7.778211 C8.69236327,7.92578273 8.55158047,8.02806742 8.38872539,8.05173165 L8.38872539,8.05173165 L5.39671069,8.48649683 C5.17907366,8.51812134 4.97793125,8.62060852 4.82442265,8.77809216 C4.43892144,9.17357573 4.44701374,9.806689 4.84249732,10.1921902 L4.84249732,10.1921902 L7.00753949,12.3025847 C7.12538254,12.4174533 7.17915678,12.5829534 7.15133781,12.7451505 L7.15133781,12.7451505 L6.64024068,15.7250754 C6.60306384,15.941833 6.63837852,16.1648011 6.74071759,16.3594615 C6.99771839,16.8483061 7.60234555,17.0362527 8.09119013,16.7792518 L8.09119013,16.7792518 L10.7673294,15.3723222 C10.9129914,15.2957431 11.0870086,15.2957431 11.2326706,15.3723222 L11.2326706,15.3723222 L13.9088099,16.7792518 C14.1034703,16.8815909 14.3264384,16.9169056 14.5431961,16.8797287 C15.0875325,16.7863677 15.4531203,16.2694118 15.3597593,15.7250754 L15.3597593,15.7250754 L14.8486622,12.7451505 C14.8208432,12.5829534 14.8746175,12.4174533 14.9924605,12.3025847 L14.9924605,12.3025847 L17.1575027,10.1921902 C17.3149863,10.0386816 17.4174735,9.83753919 17.449098,9.61990216 C17.5285156,9.0733573 17.1498342,8.56591445 16.6032893,8.48649683 L16.6032893,8.48649683 L13.6112746,8.05173165 C13.4484195,8.02806742 13.3076367,7.92578273 13.2348057,7.778211 L13.2348057,7.778211 L11.8967361,5.06698575 C11.7994058,4.86977315 11.6397783,4.71014562 11.4425657,4.61281539 Z" id="path-1"></path>
        <path d="M10.4508324,3.69598626 C10.6643843,3.80145128 10.8372371,3.97442033 10.9426313,4.1881158 L12.1917126,6.72073279 C12.2818441,6.90348211 12.456069,7.03014903 12.6576094,7.05945424 L15.45064,7.46557826 C16.0424667,7.55163354 16.4525222,8.10148803 16.3665248,8.69371265 C16.3322802,8.9295396 16.2213018,9.14749332 16.0507705,9.31383204 L14.0297146,11.2851994 C13.8838786,11.4274499 13.8173306,11.6324013 13.8517578,11.8332623 L14.3288644,14.6168777 C14.4299605,15.2067093 14.0340833,15.766872 13.4446481,15.868036 C13.2099318,15.9083201 12.9684906,15.8700538 12.7577023,15.7591614 L10.2595398,14.4449164 C10.0792766,14.3500828 9.86392281,14.3500828 9.68365966,14.4449164 L7.1854971,15.7591614 C6.65615126,16.0376421 6.00143014,15.8339871 5.72313655,15.3042853 C5.61231859,15.0933553 5.57407806,14.8517518 5.61433504,14.6168777 L6.09144163,11.8332623 C6.12586883,11.6324013 6.05932084,11.4274499 5.91348489,11.2851994 L3.89242893,9.31383204 C3.46417914,8.89611097 3.45541638,8.21008263 3.87285675,7.78154488 C4.0390837,7.61089889 4.25689096,7.49984592 4.49255943,7.46557826 L7.28559008,7.05945424 C7.48713041,7.03014903 7.66135531,6.90348211 7.75148689,6.72073279 L9.00056816,4.1881158 C9.26524109,3.65146926 9.91454652,3.43113536 10.4508324,3.69598626 Z" id="path-3"></path>
    </defs>
    <g id="页面-1" stroke="none" stroke-width="1" fill="none" fill-rule="evenodd">
        <g id="图标">
            <g id="tab/ic_备份-68" transform="translate(1.000000, 1.000000)">
                <mask id="mask-2" fill="white">
                    <use xlink:href="#path-1"></use>
                </mask>
                <g id="合并形状"></g>
                <g id="编组" mask="url(#mask-2)" fill-opacity="0.2">
                    <g transform="translate(-1.000000, -1.000000)" id="Symbol/color-light/colorPrimary">
                        <rect id="color/#000000" fill="#000000" x="0" y="0" width="24" height="24"></rect>
                    </g>
                </g>
            </g>
            <g id="编组-5" transform="translate(2.000000, 2.000000)">
                <mask id="mask-4" fill="white">
                    <use xlink:href="#path-3"></use>
                </mask>
                <use id="形状结合" fill="#8F9192" fill-rule="nonzero" xlink:href="#path-3"></use>
            </g>
        </g>
    </g>
</svg>