<?xml version="1.0" encoding="UTF-8"?>
<svg width="24px" height="24px" viewBox="0 0 24 24" version="1.1" xmlns="http://www.w3.org/2000/svg" xmlns:xlink="http://www.w3.org/1999/xlink">
    <title>编组 23</title>
    <g id="页面-1" stroke="none" stroke-width="1" fill="none" fill-rule="evenodd">
        <g id="编组-23">
            <rect id="矩形" x="0" y="0" width="24" height="24"></rect>
            <g id="编组" transform="translate(2.000000, 2.000000)">
                <path d="M10.6732784,0.00140414107 L10.4999672,0 C4.76563276,0 0.0942098729,4.60067747 0.00137132636,10.3266888 L0,10.4918989 C0,16.2343344 4.60064466,20.9057573 10.326656,20.9985959 L10.4918661,20.9999672 C16.2343016,20.9999672 20.9057245,16.3993225 20.998563,10.6733112 L20.9999344,10.5081011 C20.9999344,4.76566558 16.3992897,0.0942426876 10.6732784,0.00140414107 Z" id="路径" fill="#ED6F21"></path>
                <path d="M10.4999672,11.3900553 C13.5199031,11.3900553 16.0478545,13.4964918 16.6947103,16.3202539 C15.1438117,17.970056 12.942184,19 10.5,19 C8.05781599,19 5.8561883,17.970056 4.30578106,16.320832 C4.95207989,13.4964918 7.48003124,11.3900553 10.4999672,11.3900553 Z M10.4999672,4.80882353 C12.1568214,4.80882353 13.4999672,6.15196928 13.4999672,7.80882353 C13.4999672,9.46567778 12.1568214,10.8088235 10.4999672,10.8088235 C8.84311294,10.8088235 7.49996719,9.46567778 7.49996719,7.80882353 C7.49996719,6.15196928 8.84311294,4.80882353 10.4999672,4.80882353 Z" id="形状结合" fill-opacity="0.8" fill="#FFFFFF"></path>
            </g>
        </g>
    </g>
</svg>