<?xml version="1.0" encoding="UTF-8"?>
<svg width="25px" height="24px" viewBox="0 0 25 24" version="1.1" xmlns="http://www.w3.org/2000/svg" xmlns:xlink="http://www.w3.org/1999/xlink">
    <title>图标备份</title>
    <g id="页面-1" stroke="none" stroke-width="1" fill="none" fill-rule="evenodd">
        <g id="图标备份" transform="translate(0.363636, 0.000000)">
            <rect id="矩形" fill="#F1F3F5" opacity="0" x="0" y="0" width="24" height="24"></rect>
            <g id="编组-28" transform="translate(1.846914, 3.188167)">
                <path d="M10.1428844,0 C11.1093827,0 11.8928844,0.783501688 11.8928844,1.75 C11.8928844,2.40094074 11.5374818,2.96887275 11.010135,3.27033757 L14.0818861,8.6530979 L16.9707364,6.29938805 C16.8651625,6.07415171 16.8061726,5.82273182 16.8061726,5.55753412 C16.8061726,4.5910358 17.5896743,3.80753412 18.5561726,3.80753412 C19.5226709,3.80753412 20.3061726,4.5910358 20.3061726,5.55753412 C20.3061726,6.52403243 19.5226709,7.30753412 18.5561726,7.30753412 L18.589,7.306 L18.5852615,7.3230127 L16.8492033,13.6797736 C16.6116606,14.5495614 15.8215019,15.1528619 14.9198604,15.1528619 L14.9198604,15.1528619 L5.52763162,15.1528619 C4.63336896,15.1528619 3.84778478,14.5592119 3.603622,13.698927 L3.603622,13.698927 L1.80177899,7.35029965 C1.79755583,7.33541971 1.79368884,7.32048372 1.79017594,7.30550335 L1.75,7.30753412 C0.783501688,7.30753412 0,6.52403243 0,5.55753412 C0,4.5910358 0.783501688,3.80753412 1.75,3.80753412 C2.71649831,3.80753412 3.5,4.5910358 3.5,5.55753412 C3.5,5.81055237 3.44630406,6.05102927 3.34968598,6.26819101 L3.35411159,6.27010353 L6.61241379,8.6530979 L9.34551941,3.3082052 C8.77992787,3.0181992 8.39288443,2.42929902 8.39288443,1.75 C8.39288443,0.783501688 9.17638612,0 10.1428844,0 Z" id="形状结合" fill="#ED6F21"></path>
                <circle id="椭圆形备份-5" fill-opacity="0.8" fill="#FFFFFF" cx="10.1428844" cy="10.1223265" r="1.75"></circle>
                <path d="M15.6213165,16.1236667 C16.03553,16.1236667 16.3713165,16.4594531 16.3713165,16.8736667 C16.3713165,17.2533625 16.0891626,17.5671577 15.723087,17.6168201 L15.6213165,17.6236667 L4.6940059,17.6236667 C4.27979233,17.6236667 3.9440059,17.2878803 3.9440059,16.8736667 C3.9440059,16.4939709 4.22615978,16.1801758 4.59223534,16.1305133 L4.6940059,16.1236667 L15.6213165,16.1236667 Z" id="路径-3" fill="#ED6F21" fill-rule="nonzero"></path>
            </g>
        </g>
    </g>
</svg>