<?xml version="1.0" encoding="UTF-8"?>
<svg width="24px" height="24px" viewBox="0 0 24 24" version="1.1" xmlns="http://www.w3.org/2000/svg" xmlns:xlink="http://www.w3.org/1999/xlink">
    <title>编组 20</title>
    <defs>
        <path d="M11.3049515,3.1660135 L11.4029771,3.24242054 L11.4383705,3.27479678 L19.7500539,11.1988369 L19.7500539,17.8648386 C19.7500539,19.4625195 18.5011339,20.7684995 16.9263266,20.8597459 L16.7500539,20.8648386 L4.75005386,20.8648386 C3.15237298,20.8648386 1.84639298,19.6159187 1.75514656,18.0411114 L1.75005386,17.8648386 L1.75005386,11.1988369 L10.0618496,3.27479678 C10.4076544,2.94672556 10.9310356,2.91207618 11.3049515,3.1660135 Z M10.7500539,12.1148386 C9.15237298,12.1148386 7.84639298,13.3637586 7.75514656,14.9385658 L7.75005386,15.1148386 L7.75005386,18.8648386 L13.7500539,18.8648386 L13.7500539,15.1148386 C13.7500539,13.4579844 12.4069081,12.1148386 10.7500539,12.1148386 Z M8.14899189,0.961019894 C9.69547868,-0.364524787 12.0094898,-0.31881635 13.5030439,1.09814521 L13.5030439,1.09814521 L21.1882626,8.38925013 L21.2682366,8.47439656 C21.5892803,8.85860159 21.5784305,9.43093048 21.2254659,9.80297426 C20.8453501,10.2036368 20.2124043,10.2202933 19.8117417,9.84017753 L19.8117417,9.84017753 L12.126523,2.5490726 L12.0133993,2.4494676 C11.2406369,1.81863588 10.1084047,1.85183755 9.3734813,2.5490726 L9.3734813,2.5490726 L1.6882626,9.84017753 L1.59902778,9.91556251 C1.19846918,10.2159546 0.627503086,10.175018 0.27453847,9.80297426 C-0.10557727,9.40231172 -0.0889208004,8.76936587 0.311741737,8.38925013 L0.311741737,8.38925013 L7.99696044,1.09814521 Z" id="path-1"></path>
    </defs>
    <g id="页面-1" stroke="none" stroke-width="1" fill="none" fill-rule="evenodd">
        <g id="编组-20">
            <rect id="矩形" x="0" y="0" width="24" height="24"></rect>
            <g id="tab/ic_备份-69" transform="translate(1.000000, 2.000000)">
                <mask id="mask-2" fill="white">
                    <use xlink:href="#path-1"></use>
                </mask>
                <g id="形状结合" fill-rule="nonzero"></g>
                <g id="Symbol/color-light/colorPrimary" mask="url(#mask-2)" fill="#ED6F21">
                    <g transform="translate(-1.249946, -1.385161)" id="color/#000000">
                        <rect x="0" y="0" width="24" height="24"></rect>
                    </g>
                </g>
            </g>
        </g>
    </g>
</svg>