<?xml version="1.0" encoding="UTF-8"?>
<svg width="24px" height="24px" viewBox="0 0 24 24" version="1.1" xmlns="http://www.w3.org/2000/svg" xmlns:xlink="http://www.w3.org/1999/xlink">
    <title>编组 22</title>
    <g id="页面-1" stroke="none" stroke-width="1" fill="none" fill-rule="evenodd">
        <g id="编组-22">
            <rect id="矩形" x="0" y="0" width="24" height="24"></rect>
            <g id="tab/ic_备份-68" transform="translate(1.000000, 1.000000)">
                <circle id="Combined-Shape" fill="#ED6F21" cx="11" cy="11" r="11"></circle>
                <path d="M10.7673294,15.3723222 L8.09119013,16.7792518 C7.60234555,17.0362527 6.99771839,16.8483061 6.74071759,16.3594615 C6.63837852,16.1648011 6.60306384,15.941833 6.64024068,15.7250754 L7.15133781,12.7451505 C7.17915678,12.5829534 7.12538254,12.4174533 7.00753949,12.3025847 L4.84249732,10.1921902 C4.44701374,9.806689 4.43892144,9.17357573 4.82442265,8.77809216 C4.97793125,8.62060852 5.17907366,8.51812134 5.39671069,8.48649683 L8.38872539,8.05173165 C8.55158047,8.02806742 8.69236327,7.92578273 8.76519427,7.778211 L10.1032639,5.06698575 C10.3476862,4.57173209 10.9473121,4.36839309 11.4425657,4.61281539 C11.6397783,4.71014562 11.7994058,4.86977315 11.8967361,5.06698575 L13.2348057,7.778211 C13.3076367,7.92578273 13.4484195,8.02806742 13.6112746,8.05173165 L16.6032893,8.48649683 C17.1498342,8.56591445 17.5285156,9.0733573 17.449098,9.61990216 C17.4174735,9.83753919 17.3149863,10.0386816 17.1575027,10.1921902 L14.9924605,12.3025847 C14.8746175,12.4174533 14.8208432,12.5829534 14.8486622,12.7451505 L15.3597593,15.7250754 C15.4531203,16.2694118 15.0875325,16.7863677 14.5431961,16.8797287 C14.3264384,16.9169056 14.1034703,16.8815909 13.9088099,16.7792518 L11.2326706,15.3723222 C11.0870086,15.2957431 10.9129914,15.2957431 10.7673294,15.3723222 Z" id="星形" fill-opacity="0.8" fill="#FFFFFF"></path>
            </g>
        </g>
    </g>
</svg>