<?xml version="1.0" encoding="UTF-8"?>
<svg width="24px" height="24px" viewBox="0 0 24 24" version="1.1" xmlns="http://www.w3.org/2000/svg" xmlns:xlink="http://www.w3.org/1999/xlink">
    <title>编组 21</title>
    <g id="页面-1" stroke="none" stroke-width="1" fill="none" fill-rule="evenodd">
        <g id="编组-21">
            <rect id="矩形" x="0" y="0" width="24" height="24"></rect>
            <path d="M12.3049516,5.1660135 L12.4029772,5.24242055 L12.4383705,5.27479678 L20.7500539,13.1988369 L20.7500539,19.8648386 C20.7500539,21.4625195 19.5011339,22.7684995 17.9263267,22.8597459 L17.7500539,22.8648386 L5.75005386,22.8648386 C4.15237298,22.8648386 2.84639298,21.6159186 2.75514655,20.0411114 L2.75005386,19.8648386 L2.75005386,13.1988369 L11.0618497,5.27479678 C11.4076545,4.94672556 11.9310357,4.91207619 12.3049516,5.1660135 Z" id="path-1-path" fill-opacity="0.2" fill="#000000" fill-rule="nonzero"></path>
            <path d="M11.7500539,14.1148386 C10.152373,14.1148386 8.84639298,15.3637586 8.75514655,16.9385658 L8.75005386,17.1148386 L8.75005386,20.8648386 L14.7500539,20.8648386 L14.7500539,17.1148386 C14.7500539,15.4579844 13.4069081,14.1148386 11.7500539,14.1148386 Z" id="path-1-path" fill-opacity="0.25" fill="#000000" fill-rule="nonzero"></path>
            <path d="M9.14899189,2.9610199 C10.6954787,1.63547522 13.0094899,1.68118365 14.5030439,3.09814521 L14.5030439,3.09814521 L22.1882626,10.3892501 L22.2682366,10.4743966 C22.5892803,10.8586016 22.5784305,11.4309304 22.2254659,11.8029742 C21.8453502,12.2036368 21.2124043,12.2202932 20.8117418,11.8401775 L20.8117418,11.8401775 L13.1265231,4.54907261 L13.0133993,4.4494676 C12.240637,3.81863589 11.1084048,3.85183755 10.3734813,4.54907261 L10.3734813,4.54907261 L2.6882626,11.8401775 L2.59902777,11.9155625 C2.19846918,12.2159545 1.62750308,12.175018 1.27453847,11.8029742 C0.894422729,11.4023117 0.911079199,10.7693658 1.31174174,10.3892501 L1.31174174,10.3892501 L8.99696044,3.09814521 L9.14899189,2.9610199 Z" id="path-1-path" fill-opacity="0.2" fill="#000000" fill-rule="nonzero"></path>
        </g>
    </g>
</svg>