<?xml version="1.0" encoding="UTF-8"?>
<svg width="40px" height="40px" viewBox="0 0 40 40" version="1.1" xmlns="http://www.w3.org/2000/svg" xmlns:xlink="http://www.w3.org/1999/xlink">
    <title>会员专区橙</title>
    <g id="页面-1" stroke="none" stroke-width="1" fill="none" fill-rule="evenodd">
        <g id="编组" fill="#ED6F21">
            <circle id="椭圆形" fill-opacity="0.2" cx="20" cy="20" r="20"></circle>
            <g transform="translate(9.548793, 11.013569)" fill-rule="nonzero" id="形状">
                <path d="M3.87579723,3.10695283 C4.20204336,3.10695283 4.51570904,3.23283299 4.75144399,3.45836696 L10.5380714,8.99458934 L16.3172301,3.46058395 C16.8224948,2.97675267 17.6243155,2.99412792 18.1081468,3.49939264 C18.3339205,3.73516798 18.4599508,4.0490056 18.4599508,4.37544667 L18.4599508,13.7271196 C18.4599508,14.6852136 17.6832621,15.4619023 16.7251681,15.4619023 L4.34391317,15.4619023 C3.38581919,15.4619023 2.60913056,14.6852136 2.60913056,13.7271196 L2.60913056,4.3736195 C2.60913056,3.67405881 3.17623655,3.10695283 3.87579723,3.10695283 Z M10.7006939,9.65227816 C10.3969373,9.65227816 10.1506939,9.89852156 10.1506939,10.2022782 L10.1506939,10.2022782 L10.1506939,14.8060199 L10.1578924,14.8952328 C10.2005177,15.1565628 10.4273129,15.3560199 10.7006939,15.3560199 C11.0044505,15.3560199 11.2506939,15.1097766 11.2506939,14.8060199 L11.2506939,14.8060199 L11.2506939,10.2022782 L11.2434953,10.1130654 C11.2008701,9.85173536 10.9740748,9.65227816 10.7006939,9.65227816 Z M14.310581,9.57053366 L12.9970123,9.57053366 C12.6932557,9.57053366 12.4470123,9.81677706 12.4470123,10.1205337 L12.4470123,10.1205337 L12.4470123,14.8060199 L12.4542109,14.8952328 C12.4968361,15.1565628 12.7236314,15.3560199 12.9970123,15.3560199 C13.3007689,15.3560199 13.5470123,15.1097766 13.5470123,14.8060199 L13.5470123,14.8060199 L13.5467695,13.2295337 L14.310581,13.2296965 L14.4606351,13.2236315 C15.4008962,13.1473051 16.1401624,12.3600425 16.1401624,11.4001151 C16.1401624,10.3896652 15.3210309,9.57053366 14.310581,9.57053366 L14.310581,9.57053366 Z M8.71120174,9.67983176 C8.42266253,9.58489386 8.11179292,9.74183876 8.01685504,10.030378 L8.01685504,10.030378 L7.01820735,13.0614311 L6.00031856,10.0272285 L5.96510034,9.94494586 C5.84151756,9.71077156 5.56303415,9.59386896 5.30386918,9.68087856 C5.01590811,9.77755586 4.86084197,10.0893669 4.95751926,10.3773279 L4.95751926,10.3773279 L6.50313546,14.9810697 L6.5437123,15.0746604 C6.76377465,15.4800866 7.3926565,15.4469514 7.54698156,14.9779202 L7.54698156,14.9779202 L9.06174796,10.3741785 L9.08279313,10.287185 C9.12398092,10.0256246 8.97088704,9.76527576 8.71120174,9.67983176 Z M14.310581,10.6705337 C14.7135177,10.6705337 15.0401624,10.9971785 15.0401624,11.4001151 C15.0401624,11.8030518 14.7135177,12.1296965 14.310581,12.1296965 L14.310581,12.1296965 L13.5482073,12.1294311 L13.5482073,10.6704311 L14.310581,10.6705337 Z" fill-opacity="0.6"></path>
                <path d="M11.3343247,0.165027497 C11.794569,0.36540641 12.1614792,0.733182212 12.3607729,1.19389741 L15.3234745,8.04288974 L18.7614428,6.27459433 C19.5390631,5.87463067 20.4936836,6.18078187 20.8936472,6.95840219 C21.0729489,7.30700544 21.1165555,7.70972969 21.0160274,8.08863262 L18.8023238,16.4323608 C18.6005661,17.1928111 17.9123124,17.7222734 17.1255527,17.7222734 L3.94381227,17.7222734 C3.15705255,17.7222734 2.46879888,17.1928111 2.26704115,16.4323608 L0.0533374888,8.08863262 C-0.170907874,7.24342359 0.332482643,6.3764595 1.17769168,6.15221414 C1.55659461,6.05168608 1.95931886,6.09529265 2.30792211,6.27459433 L5.74589048,8.04288974 L8.72963407,1.18961901 C9.16596641,0.187420399 10.3321261,-0.271304845 11.3343247,0.165027497 Z M10.7006939,9.65227816 C10.3969373,9.65227816 10.1506939,9.89852156 10.1506939,10.2022782 L10.1506939,10.2022782 L10.1506939,14.8060199 L10.1578924,14.8952328 C10.2005177,15.1565628 10.4273129,15.3560199 10.7006939,15.3560199 C11.0044505,15.3560199 11.2506939,15.1097766 11.2506939,14.8060199 L11.2506939,14.8060199 L11.2506939,10.2022782 L11.2434953,10.1130654 C11.2008701,9.85173536 10.9740748,9.65227816 10.7006939,9.65227816 Z M14.310581,9.57053366 L12.9970123,9.57053366 C12.6932557,9.57053366 12.4470123,9.81677706 12.4470123,10.1205337 L12.4470123,10.1205337 L12.4470123,14.8060199 L12.4542109,14.8952328 C12.4968361,15.1565628 12.7236314,15.3560199 12.9970123,15.3560199 C13.3007689,15.3560199 13.5470123,15.1097766 13.5470123,14.8060199 L13.5470123,14.8060199 L13.5467695,13.2295337 L14.310581,13.2296965 L14.4606351,13.2236315 C15.4008962,13.1473051 16.1401624,12.3600425 16.1401624,11.4001151 C16.1401624,10.3896652 15.3210309,9.57053366 14.310581,9.57053366 L14.310581,9.57053366 Z M8.71120174,9.67983176 C8.42266253,9.58489386 8.11179292,9.74183876 8.01685504,10.030378 L8.01685504,10.030378 L7.01820735,13.0614311 L6.00031856,10.0272285 L5.96510034,9.94494586 C5.84151756,9.71077156 5.56303415,9.59386896 5.30386918,9.68087856 C5.01590811,9.77755586 4.86084197,10.0893669 4.95751926,10.3773279 L4.95751926,10.3773279 L6.50313546,14.9810697 L6.5437123,15.0746604 C6.76377465,15.4800866 7.3926565,15.4469514 7.54698156,14.9779202 L7.54698156,14.9779202 L9.06174796,10.3741785 L9.08279313,10.287185 C9.12398092,10.0256246 8.97088704,9.76527576 8.71120174,9.67983176 Z M14.310581,10.6705337 C14.7135177,10.6705337 15.0401624,10.9971785 15.0401624,11.4001151 C15.0401624,11.8030518 14.7135177,12.1296965 14.310581,12.1296965 L14.310581,12.1296965 L13.5482073,12.1294311 L13.5482073,10.6704311 L14.310581,10.6705337 Z"></path>
            </g>
        </g>
    </g>
</svg>