<?xml version="1.0" encoding="UTF-8"?>
<svg width="40px" height="40px" viewBox="0 0 40 40" version="1.1" xmlns="http://www.w3.org/2000/svg" xmlns:xlink="http://www.w3.org/1999/xlink">
    <title>儿童专区</title>
    <g id="页面-1" stroke="none" stroke-width="1" fill="none" fill-rule="evenodd">
        <g id="编组" fill="#ED6F21" fill-rule="nonzero">
            <g>
                <circle id="椭圆形" fill-opacity="0.2" cx="20" cy="20" r="20"></circle>
                <g transform="translate(9.500000, 12.514428)" id="形状">
                    <path d="M3.9375,0 C6.1121212,0 7.875,1.7628788 7.875,3.9375 C7.875,6.1121212 6.1121212,7.875 3.9375,7.875 C1.7628788,7.875 0,6.1121212 0,3.9375 C0,1.7628788 1.7628788,0 3.9375,0 Z M17.0625,0 C19.2371212,0 21,1.7628788 21,3.9375 C21,6.1121212 19.2371212,7.875 17.0625,7.875 C14.8878788,7.875 13.125,6.1121212 13.125,3.9375 C13.125,1.7628788 14.8878788,0 17.0625,0 Z" fill-opacity="0.6"></path>
                    <path d="M10.5,1.07555421 C15.1391919,1.07555421 18.9,4.83636231 18.9,9.47555425 C18.9,14.1147462 15.1391919,17.8755543 10.5,17.8755543 C5.8608081,17.8755543 2.1,14.1147462 2.1,9.47555425 C2.1,4.83636231 5.8608081,1.07555421 10.5,1.07555421 Z M6.89876746,11.4846059 C6.61700913,11.1532883 6.1200129,11.1131126 5.78869533,11.3948709 C5.45737775,11.6766292 5.41720204,12.1736255 5.69896038,12.504943 C6.88813091,13.90328 8.62805762,14.7255543 10.5,14.7255543 C12.3561806,14.7255543 14.082946,13.9171355 15.2718561,12.5390143 C15.5559553,12.2097017 15.5193026,11.7124333 15.18999,11.4283341 C14.8606774,11.144235 14.363409,11.1808877 14.0793098,11.5102003 C13.1865015,12.545096 11.8932555,13.1505543 10.5,13.1505543 C9.09493435,13.1505543 7.79178289,12.5346962 6.89876746,11.4846059 Z"></path>
                </g>
            </g>
        </g>
    </g>
</svg>