<?xml version="1.0" encoding="UTF-8"?>
<svg width="40px" height="40px" viewBox="0 0 40 40" version="1.1" xmlns="http://www.w3.org/2000/svg" xmlns:xlink="http://www.w3.org/1999/xlink">
    <title>课程专区</title>
    <g id="页面-1" stroke="none" stroke-width="1" fill="none" fill-rule="evenodd">
        <g id="编组" fill="#ED6F21" fill-rule="nonzero">
            <g>
                <circle id="椭圆形" fill-opacity="0.2" cx="20" cy="20" r="20"></circle>
                <g transform="translate(10.000000, 10.439205)" id="路径">
                    <path d="M17.8947368,1.29923393 C19.0068892,1.29923393 19.9176222,2.16161252 19.9947141,3.25414779 L20,3.40449709 L20,14.5155548 C20,16.0152465 18.94733,17.2985806 17.4964579,17.604976 L17.3130723,17.6381322 L10.9972484,18.5912081 C10.8564917,19.0068468 10.4631821,19.3060063 10,19.3060063 C9.53681795,19.3060063 9.14350835,19.0068468 9.00275155,18.5912081 L2.68692769,17.6381322 C1.14222005,17.4051495 0,16.0777336 0,14.5155548 L0,3.40449709 C0,2.24179235 0.942558421,1.29923393 2.10526316,1.29923393 C2.23237134,1.29923393 2.35921835,1.31074538 2.48424999,1.33362723 L7.41058551,2.23518862 C8.91047017,2.5096803 10,3.81669844 10,5.3414934 L10.0051863,5.15961548 C10.0842262,3.77665105 11.0590537,2.60479667 12.4037969,2.27489697 L12.5894145,2.23518862 L17.51575,1.33362723 C17.6407816,1.31074538 17.7676287,1.29923393 17.8947368,1.29923393 Z" fill-opacity="0.6"></path>
                    <path d="M4.59114731,0.037235461 L8.27535784,0.739508153 C9.26817991,0.928756793 9.98642002,1.79683771 9.98642002,2.80753585 L9.98642002,15.5829053 C9.98642002,16.1642576 9.51514081,16.6355368 8.93378844,16.6355368 C8.86764928,16.6355368 8.80165732,16.6293034 8.73668796,16.6169191 L3.80274536,15.6764264 C2.80992329,15.4871778 2.09168318,14.6190968 2.09168318,13.6083987 L2.09168318,2.10526316 C2.09168318,0.942558423 3.0342416,0 4.19694634,0 C4.32922466,0 4.46120858,0.012466946 4.59114731,0.037235461 Z"></path>
                    <path d="M12.4310744,0.037235461 L16.1152849,0.739508153 C17.108107,0.928756793 17.8263471,1.79683771 17.8263471,2.80753585 L17.8263471,15.5829053 C17.8263471,16.1642576 17.3550679,16.6355368 16.7737155,16.6355368 C16.7075763,16.6355368 16.6415844,16.6293034 16.576615,16.6169191 L11.6426724,15.6764264 C10.6498504,15.4871778 9.9316102,14.6190968 9.9316102,13.6083987 L9.9316102,2.10526316 C9.9316102,0.942558423 10.8741687,0 12.0368734,0 C12.1691517,0 12.3011356,0.012466946 12.4310744,0.037235461 Z" transform="translate(13.878979, 8.317768) scale(-1, 1) translate(-13.878979, -8.317768) "></path>
                    <path d="M12.4310744,0.037235461 L16.1152849,0.739508153 C17.108107,0.928756793 17.8263471,1.79683771 17.8263471,2.80753585 L17.8263471,15.5829053 C17.8263471,16.1642576 17.3550679,16.6355368 16.7737155,16.6355368 C16.7075763,16.6355368 16.6415844,16.6293034 16.576615,16.6169191 L11.6426724,15.6764264 C10.6498504,15.4871778 9.9316102,14.6190968 9.9316102,13.6083987 L9.9316102,2.10526316 C9.9316102,0.942558423 10.8741687,0 12.0368734,0 C12.1691517,0 12.3011356,0.012466946 12.4310744,0.037235461 Z" opacity="0.393050421" style="mix-blend-mode: multiply;" transform="translate(13.878979, 8.317768) scale(-1, 1) translate(-13.878979, -8.317768) "></path>
                </g>
            </g>
        </g>
    </g>
</svg>