<?xml version="1.0" encoding="UTF-8"?>
<svg width="40px" height="40px" viewBox="0 0 40 40" version="1.1" xmlns="http://www.w3.org/2000/svg" xmlns:xlink="http://www.w3.org/1999/xlink">
    <title>周热榜橙</title>
    <g id="页面-1" stroke="none" stroke-width="1" fill="none" fill-rule="evenodd">
        <g id="编组" fill="#ED6F21">
            <circle id="椭圆形" fill-opacity="0.2" cx="20" cy="20" r="20"></circle>
            <g transform="translate(10.000000, 11.000000)" fill-rule="nonzero">
                <g id="uxs-a-link" fill-opacity="0.6">
                    <path d="M21,11.0368421 L21,16.4368421 C21,17.3001504 20.2948485,18 19.425,18 L16.8477272,18 C15.9778788,18 15.2727273,17.3001504 15.2727273,16.4368421 L15.2727273,11.0368421 C15.2727273,10.1735339 15.9778788,9.47368419 16.8477272,9.47368419 L19.425,9.47368419 C20.2948485,9.47368419 21,10.1735339 21,11.0368421 Z M13.3636364,1.5631579 L13.3636364,16.4368421 C13.3636364,17.3001504 12.6584849,18 11.7886364,18 L9.2113636,18 C8.34151513,18 7.63636363,17.3001504 7.63636363,16.4368421 L7.63636363,1.5631579 C7.63636363,0.69984963 8.34151513,0 9.2113636,0 L11.7886364,0 C12.6584849,0 13.3636364,0.69984963 13.3636364,1.5631579 Z M5.72727273,7.24736844 L5.72727273,16.4368421 C5.72727273,17.3001504 5.0221212,18 4.15227272,18 L1.575,18 C0.705151522,18 0,17.3001504 0,16.4368421 L0,7.24736844 C0,6.38406016 0.705151522,5.68421053 1.575,5.68421053 L4.15227272,5.68421053 C5.0221212,5.68421053 5.72727273,6.38406016 5.72727273,7.24736844 Z" id="uxs-a"></path>
                </g>
                <path d="M13.3636364,1.5631579 L13.3636364,16.4368421 C13.3636364,17.3001504 12.6584849,18 11.7886364,18 L9.2113636,18 C8.34151513,18 7.63636363,17.3001504 7.63636363,16.4368421 L7.63636363,1.5631579 C7.63636363,0.69984963 8.34151513,0 9.2113636,0 L11.7886364,0 C12.6584849,0 13.3636364,0.69984963 13.3636364,1.5631579 Z" id="路径"></path>
            </g>
        </g>
    </g>
</svg>