<?xml version="1.0" encoding="UTF-8"?>
<svg width="40px" height="40px" viewBox="0 0 40 40" version="1.1" xmlns="http://www.w3.org/2000/svg" xmlns:xlink="http://www.w3.org/1999/xlink">
    <title>免费橙</title>
    <g id="页面-1" stroke="none" stroke-width="1" fill="none" fill-rule="evenodd">
        <g id="编组">
            <circle id="椭圆形" fill-opacity="0.2" fill="#ED6F21" cx="20" cy="20" r="20"></circle>
            <g id="uxs-a-link" transform="translate(10.000000, 10.706467)" fill="#FFFFFF" fill-opacity="0.6">
                <path d="M3.99747672,0.0573816006 L9.27391456,1.34458815 C9.80441433,1.47400553 10.2589302,1.81470615 10.531959,2.28760589 L16.2720594,12.2297515 C16.8243442,13.1863368 16.4965939,14.4095176 15.5400086,14.9618023 L8.74010544,18.8877282 C7.78352019,19.440013 6.56033939,19.1122627 6.00805464,18.1556774 L0.2679542,8.21353181 C-0.00507459078,7.74063208 -0.0728720544,7.1766595 0.0802990933,6.6525245 L1.60376444,1.43939203 C1.9037782,0.412777623 2.95839569,-0.196106066 3.99747672,0.0573816006 Z M9.37799803,4.64397064 C9.28022472,4.37348347 8.98866258,4.22033417 8.70726039,4.29918895 C8.43112928,4.37656664 8.257343,4.64242678 8.288648,4.91999203 L8.288648,4.91999203 L8.30234783,4.99584903 L9.13547242,8.3338485 L5.73704533,7.5472612 L5.69082111,7.53849656 C5.42915936,7.49971636 5.17502231,7.64430625 5.07325411,7.88584995 L5.07325411,7.88584995 L5.04516133,7.96994178 L5.04235992,7.98173214 L5.03437656,8.02542231 C4.99970158,8.27259208 5.14286047,8.51005489 5.37448089,8.59636936 L5.37448089,8.59636936 L5.44374508,8.61696692 L8.90139447,9.39697297 L7.85350997,10.4448575 L7.82157614,10.4799786 C7.66190694,10.6733864 7.67255156,10.9601642 7.85350997,11.1411226 C8.02655144,11.3141641 8.29635569,11.3314683 8.48874975,11.1930351 L8.48874975,11.1930351 L8.54977511,11.1411226 L9.75728197,9.93361578 L10.7868707,10.9632045 L9.61839797,12.1316772 L9.58641286,12.1665045 C9.405164,12.3816282 9.41582569,12.7034384 9.61839797,12.9060106 C9.8127855,13.1003982 10.1169702,13.1180698 10.3313209,12.9590254 L10.3313209,12.9590254 L10.3927314,12.9060106 L11.5612041,11.7375379 L13.5738539,13.7501877 L13.6112682,13.7851628 C13.9049522,14.0416466 14.3513549,14.0299882 14.6311554,13.7501877 C14.9006622,13.4806808 14.9213935,13.0566047 14.6933493,12.7633179 L14.6933493,12.7633179 L14.6311554,12.6928862 L12.6185057,10.6802364 L13.8125117,9.48623036 L13.8444968,9.451403 C14.0257457,9.23627936 14.015084,8.91446914 13.8125117,8.71189686 C13.6181242,8.51750933 13.3139395,8.49983772 13.0995888,8.65888208 L13.0995888,8.65888208 L13.0381782,8.71189686 L11.8441722,9.90590295 L10.8145835,8.87631428 L12.0476237,7.64327403 L12.0795576,7.60815289 C12.2392268,7.41474511 12.2285822,7.12796728 12.0476237,6.94700886 C11.8745823,6.77396739 11.604778,6.75666322 11.412384,6.89509642 L11.412384,6.89509642 L11.3513586,6.94700886 L10.2779407,8.02042675 L9.39062533,4.6833975 L9.37799803,4.64397064 Z M5.63597903,2.72237936 C5.0574245,2.14382486 4.11940233,2.14382486 3.54084781,2.72237936 C2.96229331,3.30093386 2.96229331,4.23895606 3.54084781,4.81751056 C4.11940233,5.39606506 5.0574245,5.39606506 5.63597903,4.81751056 C6.21453353,4.23895606 6.21453353,3.30093386 5.63597903,2.72237936 Z" id="uxs-a"></path>
            </g>
            <g id="uxs-a-link" transform="translate(10.000000, 10.706467)" fill="#ED6F21" fill-opacity="0.6" fill-rule="nonzero">
                <path d="M3.99747672,0.0573816006 L9.27391456,1.34458815 C9.80441433,1.47400553 10.2589302,1.81470615 10.531959,2.28760589 L16.2720594,12.2297515 C16.8243442,13.1863368 16.4965939,14.4095176 15.5400086,14.9618023 L8.74010544,18.8877282 C7.78352019,19.440013 6.56033939,19.1122627 6.00805464,18.1556774 L0.2679542,8.21353181 C-0.00507459078,7.74063208 -0.0728720544,7.1766595 0.0802990933,6.6525245 L1.60376444,1.43939203 C1.9037782,0.412777623 2.95839569,-0.196106066 3.99747672,0.0573816006 Z M9.37799803,4.64397064 C9.28022472,4.37348347 8.98866258,4.22033417 8.70726039,4.29918895 C8.43112928,4.37656664 8.257343,4.64242678 8.288648,4.91999203 L8.288648,4.91999203 L8.30234783,4.99584903 L9.13547242,8.3338485 L5.73704533,7.5472612 L5.69082111,7.53849656 C5.42915936,7.49971636 5.17502231,7.64430625 5.07325411,7.88584995 L5.07325411,7.88584995 L5.04516133,7.96994178 L5.04235992,7.98173214 L5.03437656,8.02542231 C4.99970158,8.27259208 5.14286047,8.51005489 5.37448089,8.59636936 L5.37448089,8.59636936 L5.44374508,8.61696692 L8.90139447,9.39697297 L7.85350997,10.4448575 L7.82157614,10.4799786 C7.66190694,10.6733864 7.67255156,10.9601642 7.85350997,11.1411226 C8.02655144,11.3141641 8.29635569,11.3314683 8.48874975,11.1930351 L8.48874975,11.1930351 L8.54977511,11.1411226 L9.75728197,9.93361578 L10.7868707,10.9632045 L9.61839797,12.1316772 L9.58641286,12.1665045 C9.405164,12.3816282 9.41582569,12.7034384 9.61839797,12.9060106 C9.8127855,13.1003982 10.1169702,13.1180698 10.3313209,12.9590254 L10.3313209,12.9590254 L10.3927314,12.9060106 L11.5612041,11.7375379 L13.5738539,13.7501877 L13.6112682,13.7851628 C13.9049522,14.0416466 14.3513549,14.0299882 14.6311554,13.7501877 C14.9006622,13.4806808 14.9213935,13.0566047 14.6933493,12.7633179 L14.6933493,12.7633179 L14.6311554,12.6928862 L12.6185057,10.6802364 L13.8125117,9.48623036 L13.8444968,9.451403 C14.0257457,9.23627936 14.015084,8.91446914 13.8125117,8.71189686 C13.6181242,8.51750933 13.3139395,8.49983772 13.0995888,8.65888208 L13.0995888,8.65888208 L13.0381782,8.71189686 L11.8441722,9.90590295 L10.8145835,8.87631428 L12.0476237,7.64327403 L12.0795576,7.60815289 C12.2392268,7.41474511 12.2285822,7.12796728 12.0476237,6.94700886 C11.8745823,6.77396739 11.604778,6.75666322 11.412384,6.89509642 L11.412384,6.89509642 L11.3513586,6.94700886 L10.2779407,8.02042675 L9.39062533,4.6833975 L9.37799803,4.64397064 Z M5.63597903,2.72237936 C5.0574245,2.14382486 4.11940233,2.14382486 3.54084781,2.72237936 C2.96229331,3.30093386 2.96229331,4.23895606 3.54084781,4.81751056 C4.11940233,5.39606506 5.0574245,5.39606506 5.63597903,4.81751056 C6.21453353,4.23895606 6.21453353,3.30093386 5.63597903,2.72237936 Z" id="uxs-a"></path>
            </g>
            <g id="uxs-c-link" transform="translate(10.048780, 10.000000)" fill="#FFFFFF">
                <path d="M8.11346809,3.85796213e-07 C8.7032924,-0.000346916734 9.26905907,0.233805742 9.6861279,0.650874591 L18.881889,9.84663569 C19.7497208,10.7144675 19.7497208,12.1215007 18.881889,12.9893325 L12.9893325,18.881889 C12.1215008,19.7497208 10.7144675,19.7497208 9.84663571,18.881889 L0.650874591,9.68612791 C0.233805741,9.26905905 -0.000346916715,8.70329241 3.8579617e-07,8.11346808 L0.00347652023,2.22438694 C0.0042001894,0.998111864 0.998111864,0.00420018949 2.22438694,0.00347652013 L8.11346809,3.85796213e-07 Z M8.65848001,5.00565641 C8.3823489,5.08303411 8.20856262,5.34889425 8.23986762,5.6264595 L8.25356746,5.7023165 L9.08669204,9.04031597 L5.68826496,8.25372866 L5.64204073,8.24496402 C5.62664887,8.24268283 5.61128304,8.24103614 5.59597273,8.24000636 L5.55023782,8.23875016 C5.32269093,8.24154691 5.11426921,8.37919064 5.02447373,8.59231741 L4.99638096,8.67640925 L4.99357954,8.68819961 C4.93438507,8.95059975 5.08045537,9.21144502 5.32570051,9.30283683 L5.39496471,9.32343439 L8.85261409,10.1034404 L7.80472959,11.151325 C7.61246126,11.3435933 7.61246126,11.6553218 7.80472959,11.8475901 C7.90206543,11.9449259 8.03001759,11.9929855 8.15758707,11.9917688 L8.20005354,11.9895382 C8.28478801,11.9814269 8.36782159,11.951415 8.43996937,11.8995026 L8.43996937,11.8995026 L8.50099473,11.8475901 L9.70850159,10.6400832 L10.7380903,11.6696719 L9.56961759,12.8381446 C9.35579129,13.0519709 9.35579129,13.3986518 9.56961759,13.6124781 C9.67252862,13.7153892 9.80621329,13.7687708 9.9410499,13.7726231 L9.98599748,13.7720728 C10.0907851,13.7665084 10.1942785,13.7309817 10.2825405,13.6654929 L10.2825405,13.6654929 L10.3439511,13.6124781 L11.5124238,12.4440054 L13.5250735,14.4566552 C13.6710564,14.602638 13.8623903,14.6756295 14.0537243,14.6756295 L14.1015315,14.6741088 C14.2766323,14.6629573 14.4485574,14.5904728 14.582375,14.4566552 C14.8518819,14.1871483 14.8726131,13.7630721 14.6445689,13.4697854 L14.6445689,13.4697854 L14.582375,13.3993536 L12.5697253,11.3867039 L13.7637314,10.1926978 L13.7957165,10.1578705 C13.9769653,9.94274683 13.9663036,9.62093661 13.7637314,9.41836433 C13.6722549,9.32688783 13.5564635,9.27454569 13.4371613,9.26133786 L13.392299,9.25821933 C13.2724443,9.25479508 13.1516793,9.29050516 13.0508084,9.36534955 L12.9893979,9.41836433 L11.7953918,10.6123704 L10.7658031,9.58278175 L11.9988434,8.3497415 L12.0307772,8.31462036 C12.1904464,8.12121258 12.1798018,7.83443475 11.9988434,7.65347633 C11.9123226,7.56695558 11.8016112,7.51936919 11.6884807,7.51071711 L11.6459859,7.50929764 C11.5467652,7.51024394 11.447776,7.54099936 11.3636036,7.60156389 L11.3025782,7.65347633 L10.2291603,8.72689422 L9.34184496,5.38986497 L9.32921765,5.35043811 C9.25472371,5.14435266 9.06773554,5.00638169 8.85845668,4.98724036 L8.81897768,4.98505627 C8.76604946,4.98403389 8.71208043,4.99063644 8.65848001,5.00565641 Z M3.49206743,3.42884683 C2.91351293,4.00740133 2.91351293,4.94542352 3.49206743,5.52397802 C3.77307962,5.80499022 4.13889684,5.94951077 4.50713707,5.95753969 L4.57212901,5.95753969 L4.57212901,5.95753969 L4.63707065,5.95470594 C4.98311312,5.93203605 5.32271657,5.78846008 5.58719865,5.52397802 C6.16575315,4.94542352 6.16575315,4.00740133 5.58719865,3.42884683 C5.00864412,2.85029233 4.07062196,2.85029233 3.49206743,3.42884683 Z" id="uxs-c"></path>
            </g>
            <g id="uxs-c-link" transform="translate(10.048780, 10.000000)" fill="#ED6F21" fill-rule="nonzero">
                <path d="M8.11346809,3.85796213e-07 C8.7032924,-0.000346916734 9.26905907,0.233805742 9.6861279,0.650874591 L18.881889,9.84663569 C19.7497208,10.7144675 19.7497208,12.1215007 18.881889,12.9893325 L12.9893325,18.881889 C12.1215008,19.7497208 10.7144675,19.7497208 9.84663571,18.881889 L0.650874591,9.68612791 C0.233805741,9.26905905 -0.000346916715,8.70329241 3.8579617e-07,8.11346808 L0.00347652023,2.22438694 C0.0042001894,0.998111864 0.998111864,0.00420018949 2.22438694,0.00347652013 L8.11346809,3.85796213e-07 Z M8.65848001,5.00565641 C8.3823489,5.08303411 8.20856262,5.34889425 8.23986762,5.6264595 L8.25356746,5.7023165 L9.08669204,9.04031597 L5.68826496,8.25372866 L5.64204073,8.24496402 C5.62664887,8.24268283 5.61128304,8.24103614 5.59597273,8.24000636 L5.55023782,8.23875016 C5.32269093,8.24154691 5.11426921,8.37919064 5.02447373,8.59231741 L4.99638096,8.67640925 L4.99357954,8.68819961 C4.93438507,8.95059975 5.08045537,9.21144502 5.32570051,9.30283683 L5.39496471,9.32343439 L8.85261409,10.1034404 L7.80472959,11.151325 C7.61246126,11.3435933 7.61246126,11.6553218 7.80472959,11.8475901 C7.90206543,11.9449259 8.03001759,11.9929855 8.15758707,11.9917688 L8.20005354,11.9895382 C8.28478801,11.9814269 8.36782159,11.951415 8.43996937,11.8995026 L8.43996937,11.8995026 L8.50099473,11.8475901 L9.70850159,10.6400832 L10.7380903,11.6696719 L9.56961759,12.8381446 C9.35579129,13.0519709 9.35579129,13.3986518 9.56961759,13.6124781 C9.67252862,13.7153892 9.80621329,13.7687708 9.9410499,13.7726231 L9.98599748,13.7720728 C10.0907851,13.7665084 10.1942785,13.7309817 10.2825405,13.6654929 L10.2825405,13.6654929 L10.3439511,13.6124781 L11.5124238,12.4440054 L13.5250735,14.4566552 C13.6710564,14.602638 13.8623903,14.6756295 14.0537243,14.6756295 L14.1015315,14.6741088 C14.2766323,14.6629573 14.4485574,14.5904728 14.582375,14.4566552 C14.8518819,14.1871483 14.8726131,13.7630721 14.6445689,13.4697854 L14.6445689,13.4697854 L14.582375,13.3993536 L12.5697253,11.3867039 L13.7637314,10.1926978 L13.7957165,10.1578705 C13.9769653,9.94274683 13.9663036,9.62093661 13.7637314,9.41836433 C13.6722549,9.32688783 13.5564635,9.27454569 13.4371613,9.26133786 L13.392299,9.25821933 C13.2724443,9.25479508 13.1516793,9.29050516 13.0508084,9.36534955 L12.9893979,9.41836433 L11.7953918,10.6123704 L10.7658031,9.58278175 L11.9988434,8.3497415 L12.0307772,8.31462036 C12.1904464,8.12121258 12.1798018,7.83443475 11.9988434,7.65347633 C11.9123226,7.56695558 11.8016112,7.51936919 11.6884807,7.51071711 L11.6459859,7.50929764 C11.5467652,7.51024394 11.447776,7.54099936 11.3636036,7.60156389 L11.3025782,7.65347633 L10.2291603,8.72689422 L9.34184496,5.38986497 L9.32921765,5.35043811 C9.25472371,5.14435266 9.06773554,5.00638169 8.85845668,4.98724036 L8.81897768,4.98505627 C8.76604946,4.98403389 8.71208043,4.99063644 8.65848001,5.00565641 Z M3.49206743,3.42884683 C2.91351293,4.00740133 2.91351293,4.94542352 3.49206743,5.52397802 C3.77307962,5.80499022 4.13889684,5.94951077 4.50713707,5.95753969 L4.57212901,5.95753969 L4.57212901,5.95753969 L4.63707065,5.95470594 C4.98311312,5.93203605 5.32271657,5.78846008 5.58719865,5.52397802 C6.16575315,4.94542352 6.16575315,4.00740133 5.58719865,3.42884683 C5.00864412,2.85029233 4.07062196,2.85029233 3.49206743,3.42884683 Z" id="uxs-c"></path>
            </g>
        </g>
    </g>
</svg>