<?xml version="1.0" encoding="UTF-8"?>
<svg width="40px" height="40px" viewBox="0 0 40 40" version="1.1" xmlns="http://www.w3.org/2000/svg" xmlns:xlink="http://www.w3.org/1999/xlink">
    <title>直播</title>
    <g id="页面-1" stroke="none" stroke-width="1" fill="none" fill-rule="evenodd">
        <g id="编组" fill="#ED6F21" fill-rule="nonzero">
            <g>
                <circle id="椭圆形" fill-opacity="0.2" cx="20" cy="20" r="20"></circle>
                <g transform="translate(10.000000, 12.500000)">
                    <path d="M14.2310053,0 C15.8878595,0 17.2310053,1.34314575 17.2310053,3 L17.2310053,13.3573212 C17.2310053,15.0141754 15.8878595,16.3573212 14.2310053,16.3573212 L3,16.3573212 C1.34314575,16.3573212 0,15.0141754 0,13.3573212 L0,3 C0,1.34314575 1.34314575,0 3,0 L14.2310053,0 Z M5.17380713,2.50909091 L2.69405002,2.50909091 C2.36629399,2.50909091 2.10059524,2.77478966 2.10059524,3.10254569 C2.10059524,3.43030171 2.36629399,3.69600046 2.69405002,3.69600046 L2.69405002,3.69600046 L5.17380713,3.69600046 C5.50156315,3.69600046 5.7672619,3.43030171 5.7672619,3.10254569 C5.7672619,2.77478966 5.50156315,2.50909091 5.17380713,2.50909091 L5.17380713,2.50909091 Z" id="形状"></path>
                    <path d="M14.6821632,4.6139033 L19.0367882,3.39866899 C20.1007061,3.10176408 21.2038709,3.72355095 21.5007758,4.78746883 C21.5496188,4.962491 21.5743821,5.14335307 21.5743821,5.32506272 L21.5743821,11.0322584 C21.5743821,12.1368279 20.6789516,13.0322584 19.5743821,13.0322584 C19.3926724,13.0322584 19.2118103,13.0074952 19.0367882,12.9586522 L14.6821632,11.7434179 C14.0193835,11.5584576 13.5609852,10.9546202 13.5609852,10.266516 L13.5609852,6.09080516 C13.5609852,5.402701 14.0193835,4.7988636 14.6821632,4.6139033 Z" id="路径" fill-opacity="0.6"></path>
                </g>
            </g>
        </g>
    </g>
</svg>