<?xml version="1.0" encoding="UTF-8"?>
<svg width="40px" height="40px" viewBox="0 0 40 40" version="1.1" xmlns="http://www.w3.org/2000/svg" xmlns:xlink="http://www.w3.org/1999/xlink">
    <title>健身</title>
    <g id="页面-1" stroke="none" stroke-width="1" fill="none" fill-rule="evenodd">
        <g id="编组" fill="#ED6F21">
            <circle id="椭圆形" fill-opacity="0.2" fill-rule="nonzero" cx="20" cy="20" r="20"></circle>
            <g transform="translate(10.000000, 9.000000)" id="形状">
                <path d="M6.72126582,12.3429695 L6.90380324,12.5809188 C7.1680918,12.9254359 7.46841428,13.2346279 7.80504984,13.5087764 C8.05965071,13.7161176 8.3156219,13.897112 8.5729342,14.0518704 L8.83069246,14.1978876 L9.18624134,14.386924 L5.70711399,16.9206625 C5.66045004,16.9590008 5.6126923,16.9938074 5.56384079,17.0250824 L5.54316385,17.037339 C5.08631735,17.3171092 4.54162019,17.2951749 3.90456565,16.9750302 L3.9768175,17.0096676 C3.96912373,17.007343 3.96159458,17.0049702 3.95422952,17.0025489 L0.488494536,15.6573681 C0.482867033,15.6550803 0.477272084,15.6527284 0.471710582,15.6503133 L0.462495529,15.6463499 C0.189903298,15.523596 0,15.2483998 0,14.9285714 C0,14.4946334 0.34958588,14.1428571 0.780821918,14.1428571 C0.843534348,14.1428571 0.90452001,14.1502966 0.962954866,14.1643464 L0.962495529,14.1648447 L4.39306707,14.9284198 L6.72126582,12.3429695 Z M14.8981786,6.92727191 C14.9138679,6.94622888 14.9266484,6.96586196 14.9399573,6.99019354 L14.9607464,7.03071758 L14.9909112,7.09554085 L15.026186,7.17699995 L15.0788458,7.30633902 L15.1415643,7.432957 L15.8311473,9.13663021 L18.3493151,9.16666667 C18.7086784,9.16666667 19,9.45981356 19,9.82142857 C19,10.1401643 18.7736704,10.4057068 18.4739095,10.4641997 L18.4742466,10.4683333 C16.2757991,10.7494444 15.0659815,10.8355277 14.8447939,10.7265831 C14.5596449,10.5861346 14.1393877,10.1928785 13.6739995,9.5827059 C13.5862542,9.47283576 13.4948497,9.34828787 13.3996905,9.20906536 C13.7714441,8.64815043 14.0535936,8.12993306 14.2461392,7.65441327 L14.2648289,7.60684954 C14.3011777,7.50798042 14.3352386,7.40991483 14.3670131,7.31265402 L14.455479,7.02328727 L14.4733837,6.97274162 C14.549712,6.81921192 14.7669026,6.76865431 14.8981786,6.92727191 Z" fill-opacity="0.6"></path>
                <path d="M11.5787665,3.45963437 C11.9648984,3.46891658 12.3271094,3.5714224 12.5980677,3.73937227 L12.7084095,3.81527657 C14.14689,4.76996841 14.6057582,6.17533586 13.530002,7.98860274 L13.398499,8.2067454 C13.2754092,8.40829692 13.11918,8.65834031 12.9344656,8.94995274 L12.2728431,9.98392735 L11.4730075,11.2166142 C12.998246,12.7813437 13.8973312,13.7464763 14.1702631,14.1120119 C14.4642524,14.5057496 15.1941344,16.7945004 16.3599092,20.9782643 C16.3846585,21.0524703 16.3972603,21.1318971 16.3972603,21.2142857 C16.3972603,21.6482237 16.0476744,22 15.6164384,22 C15.3137745,22 15.0513313,21.8267164 14.9217418,21.5733629 L14.9215192,21.573102 L12.1457137,15.7409246 C12.1210331,15.6777211 11.690739,15.3698836 10.8363122,14.806714 L8.61851076,13.3585234 L8.47852919,13.2640057 C8.10233536,13.008203 7.89552652,12.8513809 7.75125211,12.7170675 C6.97454502,11.9940999 6.86898806,10.9238479 7.37048686,9.96301105 L7.84205479,9.00297619 L7.97898437,8.69169816 L8.0369686,8.56564982 L8.05392895,8.52972554 C8.11652267,8.39829317 8.17766345,8.27616476 8.23777878,8.16328346 L8.44382401,7.78875824 L8.50633982,7.66779936 L8.57001276,7.53939725 L8.6363437,7.40062746 L8.70683348,7.24856557 C8.73118998,7.19533797 8.75648977,7.13940763 8.78298298,7.08028711 L9.07117112,6.42854626 L7.01665255,6.90260352 L4.71650803,9.4603458 C4.57520706,9.60253212 4.38000158,9.69047619 4.16438356,9.69047619 C3.73314752,9.69047619 3.38356164,9.33869992 3.38356164,8.9047619 C3.38356164,8.73385576 3.43778843,8.57569432 3.52987305,8.44674908 L3.52943951,8.44635367 L5.18828949,5.8508933 C5.48273494,5.39306601 5.68945338,5.05924658 5.81969559,4.86098705 C5.94993779,4.66272751 6.26214865,4.55112671 7.44302173,4.29825539 L9.7863715,3.81370456 L10.1047065,3.74367503 L10.4508921,3.662847 C10.6293737,3.61966849 10.7880604,3.57843171 10.9309098,3.53784377 C11.0871294,3.49544714 11.2488179,3.46944123 11.4135452,3.46150115 L11.5787665,3.45963437 Z M14.2023872,0 C15.2607299,0 16.1193016,0.861742337 16.1193016,1.92514396 C16.1193016,2.98837817 15.2605841,3.85060146 14.2023872,3.85060146 C13.1428605,3.85060146 12.2835981,2.988612 12.2835981,1.92514396 C12.2835981,0.861508553 13.1427146,0 14.2023872,0 Z"></path>
            </g>
        </g>
    </g>
</svg>