<?xml version="1.0" encoding="UTF-8"?>
<svg width="40px" height="40px" viewBox="0 0 40 40" version="1.1" xmlns="http://www.w3.org/2000/svg" xmlns:xlink="http://www.w3.org/1999/xlink">
    <title>全部橙</title>
    <g id="页面-1" stroke="none" stroke-width="1" fill="none" fill-rule="evenodd">
        <g id="编组" fill="#ED6F21">
            <circle id="椭圆形" fill-opacity="0.2" cx="20" cy="20" r="20"></circle>
            <g transform="translate(10.000000, 10.000000)" fill-rule="nonzero" id="path-1">
                <path d="M5.11710401,10.5 C6.30605717,10.5 6.85734318,10.6474289 7.37499024,10.9242696 C7.8926373,11.2011103 8.2988897,11.6073627 8.5757304,12.1250098 L8.6276917,12.2257818 C8.8709805,12.7164447 9,13.2706495 9,14.382896 L9,15.617104 C9,16.8060572 8.8525711,17.3573432 8.5757304,17.8749902 C8.2988897,18.3926373 7.8926373,18.7988897 7.37499024,19.0757304 L7.27421823,19.1276917 C6.78355532,19.3709805 6.22935051,19.5 5.11710401,19.5 L3.88289599,19.5 C2.69394283,19.5 2.14265682,19.3525711 1.62500976,19.0757304 C1.10736271,18.7988897 0.70111026,18.3926373 0.42426959,17.8749902 L0.37230832,17.7742182 C0.13740875,17.3004747 0.00903377,16.767496 0.00045963,15.7301936 L0,14.382896 C0,13.1939428 0.14742891,12.6426568 0.42426959,12.1250098 C0.70111026,11.6073627 1.10736271,11.2011103 1.62500976,10.9242696 L1.72578177,10.8723083 C2.19952527,10.6374087 2.73250402,10.5090338 3.76980637,10.5004596 L5.11710401,10.5 Z M15.617104,10.5 C16.8060572,10.5 17.3573432,10.6474289 17.8749902,10.9242696 C18.3926373,11.2011103 18.7988897,11.6073627 19.0757304,12.1250098 L19.1276917,12.2257818 C19.3709805,12.7164447 19.5,13.2706495 19.5,14.382896 L19.5,15.617104 C19.5,16.8060572 19.3525711,17.3573432 19.0757304,17.8749902 C18.7988897,18.3926373 18.3926373,18.7988897 17.8749902,19.0757304 L17.7742182,19.1276917 C17.2835553,19.3709805 16.7293505,19.5 15.617104,19.5 L14.382896,19.5 C13.1939428,19.5 12.6426568,19.3525711 12.1250098,19.0757304 C11.6073627,18.7988897 11.2011103,18.3926373 10.9242696,17.8749902 L10.8723083,17.7742182 C10.6374087,17.3004747 10.5090338,16.767496 10.5004596,15.7301936 L10.5,14.382896 C10.5,13.1939428 10.6474289,12.6426568 10.9242696,12.1250098 C11.2011103,11.6073627 11.6073627,11.2011103 12.1250098,10.9242696 L12.2257818,10.8723083 C12.6995253,10.6374087 13.232504,10.5090338 14.2698064,10.5004596 L15.617104,10.5 Z M5.11710401,0 C6.30605717,0 6.85734318,0.14742891 7.37499024,0.42426959 C7.8926373,0.70111026 8.2988897,1.10736271 8.5757304,1.62500976 L8.6276917,1.72578177 C8.8709805,2.21644468 9,2.77064949 9,3.88289599 L9,5.11710401 C9,6.30605717 8.8525711,6.85734318 8.5757304,7.37499024 C8.2988897,7.8926373 7.8926373,8.2988897 7.37499024,8.5757304 L7.27421823,8.6276917 C6.78355532,8.8709805 6.22935051,9 5.11710401,9 L3.88289599,9 C2.69394283,9 2.14265682,8.8525711 1.62500976,8.5757304 C1.10736271,8.2988897 0.70111026,7.8926373 0.42426959,7.37499024 L0.37230832,7.27421823 C0.13740875,6.80047473 0.00903377,6.26749598 0.00045963,5.23019363 L0,3.88289599 C0,2.69394283 0.14742891,2.14265682 0.42426959,1.62500976 C0.70111026,1.10736271 1.10736271,0.70111026 1.62500976,0.42426959 L1.72578177,0.37230832 C2.19952527,0.13740875 2.73250402,0.00903377 3.76980637,0.00045963 L5.11710401,0 Z M15.617104,0 C16.8060572,0 17.3573432,0.14742891 17.8749902,0.42426959 C18.3926373,0.70111026 18.7988897,1.10736271 19.0757304,1.62500976 L19.1276917,1.72578177 C19.3709805,2.21644468 19.5,2.77064949 19.5,3.88289599 L19.5,5.11710401 C19.5,6.30605717 19.3525711,6.85734318 19.0757304,7.37499024 C18.7988897,7.8926373 18.3926373,8.2988897 17.8749902,8.5757304 L17.7742182,8.6276917 C17.2835553,8.8709805 16.7293505,9 15.617104,9 L14.382896,9 C13.1939428,9 12.6426568,8.8525711 12.1250098,8.5757304 C11.6073627,8.2988897 11.2011103,7.8926373 10.9242696,7.37499024 L10.8723083,7.27421823 C10.6374087,6.80047473 10.5090338,6.26749598 10.5004596,5.23019363 L10.5,3.88289599 C10.5,2.69394283 10.6474289,2.14265682 10.9242696,1.62500976 C11.2011103,1.10736271 11.6073627,0.70111026 12.1250098,0.42426959 L12.2257818,0.37230832 C12.6995253,0.13740875 13.232504,0.00903377 14.2698064,0.00045963 L15.617104,0 Z"></path>
            </g>
        </g>
    </g>
</svg>