<?xml version="1.0" encoding="UTF-8"?>
<svg width="40px" height="40px" viewBox="0 0 40 40" version="1.1" xmlns="http://www.w3.org/2000/svg" xmlns:xlink="http://www.w3.org/1999/xlink">
    <title>经典橙</title>
    <g id="页面-1" stroke="none" stroke-width="1" fill="none" fill-rule="evenodd">
        <g id="编组" fill="#ED6F21">
            <circle id="椭圆形" fill-opacity="0.2" cx="20" cy="20" r="20"></circle>
            <g transform="translate(10.000000, 10.000000)" fill-rule="nonzero" id="path-1">
                <path d="M17.3175379,12.0415379 L16.9113898,12.4378192 C16.6757037,12.6675564 16.5681553,12.9985566 16.6237932,13.3229506 L17.3948472,17.8185401 C17.5582289,18.7711289 16.9184502,19.6758017 15.9658614,19.8391835 C15.5865356,19.904243 15.1963414,19.8424423 14.8556856,19.6633489 L11.7239706,18.0169113 C13.232983,16.7545437 14.6926773,15.0976316 16.1030536,13.0461752 C16.24769,12.9051895 16.7031328,12.547621 17.3175379,12.0415379 Z M11.1275436,0.181102169 C11.4726657,0.351430089 11.7520138,0.630778249 11.9223417,0.975900309 L13.9409872,5.06612273 C14.0866492,5.3612662 14.3682148,5.56583558 14.6939249,5.61316404 L19.2077534,6.2690617 C20.1642069,6.40804253 20.8268994,7.29606752 20.6879186,8.25252103 C20.6325757,8.63338585 20.4532231,8.98538505 20.1776268,9.25402515 L18.029065,11.3476094 L17.9098585,11.4645528 L17.2548466,12.0280887 C15.9496077,13.1387217 14.6730788,14.1507209 13.4252601,15.0640866 C11.9694715,16.1296798 10.4600916,17.1288524 8.89712051,18.0616045 L8.90100001,18.058 L5.8504216,19.6633489 C4.99494357,20.1131003 3.93684605,19.7841939 3.48709464,18.9287159 C3.30800126,18.5880601 3.24620058,18.1978659 3.31126006,17.8185401 L4.08231401,13.3229506 C4.13795194,12.9985566 4.03040346,12.6675564 3.79471737,12.4378192 L0.528480439,9.25402515 C-0.163615821,8.57939795 -0.177777361,7.47144978 0.496849759,6.77935352 C0.765489819,6.50375716 1.11748904,6.32440459 1.49835384,6.2690617 L6.01218227,5.61316404 C6.33789243,5.56583558 6.61945802,5.3612662 6.76512003,5.06612273 L8.78376551,0.975900309 C9.21150451,0.109206409 10.2608497,-0.246636841 11.1275436,0.181102169 Z"></path>
            </g>
        </g>
    </g>
</svg>