<?xml version="1.0" encoding="UTF-8"?>
<svg width="24px" height="24px" viewBox="0 0 24 24" version="1.1" xmlns="http://www.w3.org/2000/svg" xmlns:xlink="http://www.w3.org/1999/xlink">
    <title>phone_diBuTab_cell_2</title>
    <defs>
        <path d="M11.4810746,0.654624925 L13.798014,6.94466805 L13.798014,6.94466805 L20.0861167,6.94466805 C20.6384014,6.94466805 21.0861167,7.3923833 21.0861167,7.94466805 C21.0861167,8.25858446 20.9387091,8.55428237 20.6880269,8.74323185 L15.5711217,12.6000524 L15.5711217,12.6000524 L17.4971864,18.7008132 C17.663458,19.2274746 17.3713045,19.7892078 16.8446432,19.9554795 C16.5486583,20.0489245 16.2260619,19.9996323 15.9714876,19.8220628 L10.5632895,16.0497599 L10.5632895,16.0497599 L5.3943241,19.8988009 C4.95136019,20.2286515 4.32487024,20.136955 3.99501965,19.6939911 C3.80742975,19.4420723 3.74909939,19.1166547 3.83750974,18.8152636 L5.65573761,12.6169189 L5.65573761,12.6169189 L0.406905689,8.74975276 C-0.0377303193,8.42215962 -0.132612312,7.79614421 0.194980826,7.3515082 C0.383462208,7.09568597 0.68230738,6.94466805 1.00006554,6.94466805 L7.29045846,6.94466805 L7.29045846,6.94466805 L9.60419769,0.655026011 C9.7948717,0.136699986 10.3696298,-0.128914454 10.8879558,0.0617595537 C11.1629793,0.16293108 11.3797856,0.379644679 11.4810746,0.654624925 Z" id="path-1"></path>
    </defs>
    <g id="控件" stroke="none" stroke-width="1" fill="none" fill-rule="evenodd">
        <g id="phone_diBuTab/cell/2">
            <g id="symbol/frame/symbol_grid24"></g>
            <g id="star" transform="translate(1.457028, 1.491072)">
                <mask id="mask-2" fill="white">
                    <use xlink:href="#path-1"></use>
                </mask>
                <g id="Stroke-161-Copy-2" fill-rule="nonzero"></g>
                <g id="color/light/#000000" mask="url(#mask-2)" fill="#7F7F7F">
                    <g transform="translate(-1.457028, -1.491072)" id="color/#000000">
                        <rect x="0" y="0" width="24" height="24"></rect>
                    </g>
                </g>
            </g>
        </g>
    </g>
</svg>