<?xml version="1.0" encoding="UTF-8"?>
<svg width="24px" height="24px" viewBox="0 0 24 24" version="1.1" xmlns="http://www.w3.org/2000/svg" xmlns:xlink="http://www.w3.org/1999/xlink">
    <title>phone_diBuTab_cell_5</title>
    <g id="控件" stroke="none" stroke-width="1" fill="none" fill-rule="evenodd">
        <g id="phone_diBuTab/cell/5">
            <g id="symbol/frame/symbol_grid24"></g>
            <g id="ic_public_home_filled" transform="translate(1.000000, 2.000000)" fill="#7F7F7F" fill-rule="nonzero">
                <path d="M11.3049516,3.1660135 L11.4029772,3.24242055 L11.4383705,3.27479678 L19.7500539,11.1988369 L19.7500539,17.8648386 C19.7500539,19.4625195 18.5011339,20.7684995 16.9263267,20.8597459 L16.7500539,20.8648386 L4.75005386,20.8648386 C3.15237298,20.8648386 1.84639298,19.6159186 1.75514655,18.0411114 L1.75005386,17.8648386 L1.75005386,11.1988369 L10.0618497,3.27479678 C10.4076545,2.94672556 10.9310357,2.91207619 11.3049516,3.1660135 Z M10.7500539,12.1148386 C9.15237296,12.1148386 7.84639298,13.3637586 7.75514655,14.9385658 L7.75005386,15.1148386 L7.75005386,18.8648386 L13.7500539,18.8648386 L13.7500539,15.1148386 C13.7500539,13.4579844 12.4069081,12.1148386 10.7500539,12.1148386 Z M8.14899189,0.961019896 C9.69547866,-0.364524784 12.0094899,-0.318816354 13.5030439,1.09814521 L13.5030439,1.09814521 L21.1882626,8.38925013 L21.2682366,8.47439656 C21.5892803,8.85860163 21.5784305,9.43093043 21.2254659,9.80297423 C20.8453502,10.2036368 20.2124043,10.2202932 19.8117418,9.84017753 L19.8117418,9.84017753 L12.1265231,2.54907261 L12.0133993,2.4494676 C11.240637,1.81863589 10.1084048,1.85183755 9.37348126,2.54907261 L9.37348126,2.54907261 L1.6882626,9.84017753 L1.59902777,9.91556253 C1.19846918,10.2159545 0.627503079,10.175018 0.274538469,9.80297423 C-0.105577271,9.40231173 -0.0889208005,8.76936583 0.311741739,8.38925013 L0.311741739,8.38925013 L7.99696044,1.09814521 L8.14899189,0.961019896 Z" id="path-1"></path>
            </g>
        </g>
    </g>
</svg>