<?xml version="1.0" encoding="UTF-8"?>
<svg width="24px" height="24px" viewBox="0 0 24 24" version="1.1" xmlns="http://www.w3.org/2000/svg" xmlns:xlink="http://www.w3.org/1999/xlink">
    <title>public_ic_more_24x24</title>
    <defs>
        <path d="M1.5,3 C2.32842712,3 3,2.32842712 3,1.5 C3,0.671572875 2.32842712,0 1.5,0 C0.671572875,0 0,0.671572875 0,1.5 C0,2.32842712 0.671572875,3 1.5,3 Z M1.5,11.5 C2.32842712,11.5 3,10.8284271 3,10 C3,9.17157288 2.32842712,8.5 1.5,8.5 C0.671572875,8.5 0,9.17157288 0,10 C0,10.8284271 0.671572875,11.5 1.5,11.5 Z M1.5,20 C2.32842712,20 3,19.3284271 3,18.5 C3,17.6715729 2.32842712,17 1.5,17 C0.671572875,17 0,17.6715729 0,18.5 C0,19.3284271 0.671572875,20 1.5,20 Z" id="path-1"></path>
    </defs>
    <g id="1016" stroke="none" stroke-width="1" fill="none" fill-rule="evenodd">
        <g id="图标" transform="translate(-24.000000, -310.000000)">
            <g id="编组-10" transform="translate(24.000000, 310.000000)">
                <rect id="矩形" x="0" y="0" width="24" height="24"></rect>
                <g id="public_ic_more_24x24">
                    <g id="symbol/frame/symbol_grid24-copy"></g>
                    <g id="more" transform="translate(10.500000, 2.000000)">
                        <mask id="mask-2" fill="white">
                            <use xlink:href="#path-1"></use>
                        </mask>
                        <use id="合并形状" fill="#000000" xlink:href="#path-1"></use>
                        <rect id="color/#000000" fill="#000000" mask="url(#mask-2)" x="-10.5" y="-2" width="24" height="24"></rect>
                    </g>
                </g>
            </g>
        </g>
    </g>
</svg>